  0
SECTION
  2
HEADER
  9
$ANGBASE
  50
0.0
  9
$ANGDIR
  70
1
  9
$MEASUREMENT
  70
0
  0
ENDSEC
  0
SECTION
  2
TABLES
  0
TABLE
  2
LTYPE
  70
4
  0
LTYPE
  5
40F
  2
CONTINUOUS
  70
0
  3
Solid line
  72
65
  73
0
  40
0.0
  0
LTYPE
  5
410
  2
DASHDOT
 70
0
  3
Dash Dot ____ _ ____ _
 72
65
 73
4
 40
2.0
 49
1.25
 49
-0.25
 49
0.25
 49
-0.25
  0
LTYPE
  5
411
  2
DASHED
 70
0
  3
Dashed __ __ __ __ __
 72
65
 73
2
 40
0.75
 49
0.5
 49
-0.25
  0
LTYPE
  5
43B
  2
DOTTED
 70
0
  3
Dotted .  .  .  .
 72
65
 73
2
 40
0.2
 49
0.0
 49
-0.2
  0
ENDTAB
  0
TABLE
  2
STYLE
  70
4
  0
STYLE
  2
KICAD
  70
0
  40
0
  41
1
  42
1
  50
0
  71
0
  3
isocp.shx
  0
STYLE
  2
KICADB
  70
0
  40
0
  41
1
  42
1
  50
0
  71
0
  3
isocp.shx
  0
STYLE
  2
KICADI
  70
0
  40
0
  41
1
  42
1
  50
15
  71
0
  3
isocp.shx
  0
STYLE
  2
KICADBI
  70
0
  40
0
  41
1
  42
1
  50
15
  71
0
  3
isocp.shx
  0
ENDTAB
  0
TABLE
  2
LAYER
  70
1
  0
LAYER
  2
BLACK
  70
0
  62
7
  6
CONTINUOUS
  0
ENDTAB
  0
ENDSEC
  0
SECTION
  2
ENTITIES
0
CIRCLE
8
BLACK
10
5.06252
20
-1.28125
40
0.0480512
0
CIRCLE
8
BLACK
10
1.8125
20
-1.90625
40
0.0497102
0
CIRCLE
8
BLACK
10
1.71875
20
-2.65625
40
0.0489839
0
CIRCLE
8
BLACK
10
5.625
20
-3.6875
40
0.0486508
0
CIRCLE
8
BLACK
10
9.53126
20
-2.65625
40
0.0474962
0
CIRCLE
8
BLACK
10
9.43748
20
-1.90625
40
0.0507141
0
CIRCLE
8
BLACK
10
6.18748
20
-1.28125
40
0.0487707
0
ARC
8
BLACK
10
1.21827
20
-1.1537
40
0.0787402
50
96.9099
51
173.89
0
ARC
8
BLACK
10
5.98191
20
-1.05544
40
0.0787402
50
-90
51
-85.116
0
LINE
8
BLACK
6
CONTINUOUS
10
8.58926
20
-0.899312
11
10.0503
21
-1.10592
0
ARC
8
BLACK
10
2.67564
20
-1.09606
40
0.19685
50
83.9885
51
96.9099
0
LINE
8
BLACK
6
CONTINUOUS
10
0.914804
20
-3.24868
11
1.13997
21
-1.14532
0
ARC
8
BLACK
10
3.90859
20
-3.59237
40
0.0787401
50
-110.009
51
-96.0099
0
ARC
8
BLACK
10
10.0393
20
-1.18389
40
0.0787402
50
6.01193
51
81.951
0
ARC
8
BLACK
10
3.42966
20
-0.898347
40
0.0787402
50
-96.0115
51
-94.8737
0
ARC
8
BLACK
10
7.34528
20
-3.59237
40
0.0787402
50
-83.9905
51
-69.9913
0
LINE
8
BLACK
6
CONTINUOUS
10
8.57003
20
-0.898965
11
7.82852
21
-0.976657
0
LINE
8
BLACK
6
CONTINUOUS
10
1.20879
20
-1.07553
11
2.65196
21
-0.900637
0
LINE
8
BLACK
6
CONTINUOUS
10
5.8629
20
-3.82716
11
5.39087
21
-3.82716
0
ARC
8
BLACK
10
3.14847
20
-3.48317
40
0.0787402
50
69.9913
51
83.9613
0
ARC
8
BLACK
10
1.65848
20
-3.32672
40
0.0787401
50
-95.976
51
-84.1154
0
LINE
8
BLACK
6
CONTINUOUS
10
8.82183
20
-3.3282
11
8.09713
21
-3.40487
0
LINE
8
BLACK
6
CONTINUOUS
10
3.42142
20
-0.976654
11
2.69626
21
-0.90029
0
ARC
8
BLACK
10
5.8629
20
-3.74842
40
0.0787402
50
-90
51
-83.9905
0
LINE
8
BLACK
6
CONTINUOUS
10
10.1176
20
-1.17564
11
10.3392
21
-3.28022
0
ARC
8
BLACK
10
8.83012
20
-3.4065
40
0.0787401
50
81.7913
51
96.0392
0
ARC
8
BLACK
10
0.993096
20
-3.25707
40
0.0787402
50
173.89
51
264.024
0
ARC
8
BLACK
10
5.39087
20
-3.74842
40
0.0787402
50
-96.0099
51
-90
0
LINE
8
BLACK
6
CONTINUOUS
10
9.58576
20
-3.43595
11
8.84136
21
-3.32857
0
ARC
8
BLACK
10
8.57824
20
-0.977277
40
0.0787402
50
81.951
51
95.9814
0
LINE
8
BLACK
6
CONTINUOUS
10
8.07847
20
-3.40918
11
7.37223
21
-3.66636
0
ARC
8
BLACK
10
9.597
20
-3.35802
40
0.0787402
50
-98.2087
51
-84.0198
0
LINE
8
BLACK
6
CONTINUOUS
10
3.15675
20
-3.40487
11
2.43037
21
-3.32803
0
LINE
8
BLACK
6
CONTINUOUS
10
5.38262
20
-3.82673
11
3.90035
21
-3.67068
0
ARC
8
BLACK
10
2.42208
20
-3.40633
40
0.0787401
50
83.9613
51
95.8846
0
LINE
8
BLACK
6
CONTINUOUS
10
3.88165
20
-3.66636
11
3.17541
21
-3.40918
0
ARC
8
BLACK
10
7.82032
20
-0.898346
40
0.0787402
50
-85.116
51
-84.0186
0
ARC
8
BLACK
10
10.2609
20
-3.28847
40
0.0787402
50
-84.0198
51
6.01193
0
LINE
8
BLACK
6
CONTINUOUS
10
5.26528
20
-1.13389
11
3.42297
21
-0.976802
0
LINE
8
BLACK
6
CONTINUOUS
10
7.35353
20
-3.67068
11
5.87115
21
-3.82673
0
ARC
8
BLACK
10
5.27197
20
-1.05544
40
0.0787402
50
-94.8737
51
-90
0
LINE
8
BLACK
6
CONTINUOUS
10
10.2691
20
-3.36678
11
9.60521
21
-3.43633
0
LINE
8
BLACK
6
CONTINUOUS
10
1.65028
20
-3.40503
11
0.984899
21
-3.33538
0
ARC
8
BLACK
10
8.10541
20
-3.48317
40
0.0787402
50
96.0392
51
110.009
0
LINE
8
BLACK
6
CONTINUOUS
10
7.82702
20
-0.9768
11
5.98861
21
-1.13389
0
LINE
8
BLACK
6
CONTINUOUS
10
2.41401
20
-3.328
11
1.66655
21
-3.40504
0
LINE
8
BLACK
6
CONTINUOUS
10
5.27197
20
-1.13418
11
5.98191
21
-1.13418
  0
ENDSEC
  0
EOF
