999
"DXF R12 Output" (www.mydxf.blogspot.com)
 0 
SECTION
 2 
HEADER
 9 
$ACADVER
 1 
AC1009
 9 
$EXTMIN
 10 
 0 
 20 
 0 
 9 
$EXTMAX
 10 
 8.5 
 20 
 11 
 0 
ENDSEC
 0 
SECTION
 2 
ENTITIES
0
LINE
8
Layer 1
10
35.718800
20
71.201800
11
35.407400
21
70.503787
0
LINE
8
Layer 1
10
35.407400
20
70.503787
11
35.277800
21
69.435800
0
LINE
8
Layer 1
10
35.277800
20
69.435800
11
35.237892
21
68.733397
0
LINE
8
Layer 1
10
35.237892
20
68.733397
11
35.083187
21
68.248325
0
LINE
8
Layer 1
10
35.083187
20
68.248325
11
34.761214
21
67.887266
0
LINE
8
Layer 1
10
34.761214
20
67.887266
11
34.219500
21
67.556900
0
LINE
8
Layer 1
10
34.219500
20
67.556900
11
33.693211
21
67.234600
0
LINE
8
Layer 1
10
33.693211
20
67.234600
11
33.369487
21
66.885375
0
LINE
8
Layer 1
10
33.369487
20
66.885375
11
33.206170
21
66.440562
0
LINE
8
Layer 1
10
33.206170
20
66.440562
11
33.161100
21
65.831500
0
LINE
8
Layer 1
10
33.161100
20
65.831500
11
33.045863
21
64.997105
0
LINE
8
Layer 1
10
33.045863
20
64.997105
11
32.710881
21
64.191373
0
LINE
8
Layer 1
10
32.710881
20
64.191373
11
32.172246
21
63.427658
0
LINE
8
Layer 1
10
32.172246
20
63.427658
11
31.446050
21
62.719313
0
LINE
8
Layer 1
10
31.446050
20
62.719313
11
30.548385
21
62.079690
0
LINE
8
Layer 1
10
30.548385
20
62.079690
11
29.495344
21
61.522145
0
LINE
8
Layer 1
10
29.495344
20
61.522145
11
26.987500
21
60.706700
0
LINE
8
Layer 1
10
26.987500
20
60.706700
11
24.832952
21
60.107239
0
LINE
8
Layer 1
10
24.832952
20
60.107239
11
22.383737
21
59.218212
0
LINE
8
Layer 1
10
22.383737
20
59.218212
11
20.031555
21
58.195630
0
LINE
8
Layer 1
10
20.031555
20
58.195630
11
18.168100
21
57.195500
0
LINE
8
Layer 1
10
18.168100
20
57.195500
11
14.697475
21
54.563362
0
LINE
8
Layer 1
10
14.697475
20
54.563362
11
11.364700
21
51.507700
0
LINE
8
Layer 1
10
11.364700
20
51.507700
11
10.205500
21
50.270800
0
LINE
8
Layer 1
10
10.205500
20
50.270800
11
11.541100
21
50.743500
0
LINE
8
Layer 1
10
11.541100
20
50.743500
11
13.437716
21
51.180317
0
LINE
8
Layer 1
10
13.437716
20
51.180317
11
15.839400
21
51.409487
0
LINE
8
Layer 1
10
15.839400
20
51.409487
11
18.338434
21
51.411764
0
LINE
8
Layer 1
10
18.338434
20
51.411764
11
20.527100
21
51.167900
0
LINE
8
Layer 1
10
20.527100
20
51.167900
11
22.687395
21
50.594223
0
LINE
8
Layer 1
10
22.687395
20
50.594223
11
24.893638
21
49.732088
0
LINE
8
Layer 1
10
24.893638
20
49.732088
11
27.040161
21
48.629183
0
LINE
8
Layer 1
10
27.040161
20
48.629183
11
29.021300
21
47.333200
0
LINE
8
Layer 1
10
29.021300
20
47.333200
11
34.792700
21
43.540500
0
LINE
8
Layer 1
10
34.792700
20
43.540500
11
37.605813
21
41.704238
0
LINE
8
Layer 1
10
37.605813
20
41.704238
11
38.982000
21
40.608600
0
LINE
8
Layer 1
10
38.982000
20
40.608600
11
39.287537
21
38.860025
0
LINE
8
Layer 1
10
39.287537
20
38.860025
11
39.526700
21
35.454100
0
LINE
8
Layer 1
10
39.526700
20
35.454100
11
39.718900
21
30.868000
0
LINE
8
Layer 1
10
39.718900
20
30.868000
11
39.802500
21
35.454100
0
LINE
8
Layer 1
10
39.802500
20
35.454100
11
39.976175
21
38.995725
0
LINE
8
Layer 1
10
39.976175
20
38.995725
11
40.316200
21
40.601900
0
LINE
8
Layer 1
10
40.316200
20
40.601900
11
41.746650
21
41.694913
0
LINE
8
Layer 1
10
41.746650
20
41.694913
11
44.582300
21
43.533800
0
LINE
8
Layer 1
10
44.582300
20
43.533800
11
50.353800
21
47.333200
0
LINE
8
Layer 1
10
50.353800
20
47.333200
11
52.334883
21
48.629183
0
LINE
8
Layer 1
10
52.334883
20
48.629183
11
54.481388
21
49.732088
0
LINE
8
Layer 1
10
54.481388
20
49.732088
11
56.687648
21
50.594223
0
LINE
8
Layer 1
10
56.687648
20
50.594223
11
58.848000
21
51.167900
0
LINE
8
Layer 1
10
58.848000
20
51.167900
11
61.036664
21
51.411764
0
LINE
8
Layer 1
10
61.036664
20
51.411764
11
63.535688
21
51.409487
0
LINE
8
Layer 1
10
63.535688
20
51.409487
11
65.937342
21
51.180317
0
LINE
8
Layer 1
10
65.937342
20
51.180317
11
67.833900
21
50.743500
0
LINE
8
Layer 1
10
67.833900
20
50.743500
11
69.169500
21
50.270800
0
LINE
8
Layer 1
10
69.169500
20
50.270800
11
68.010300
21
51.507700
0
LINE
8
Layer 1
10
68.010300
20
51.507700
11
64.677575
21
54.563362
0
LINE
8
Layer 1
10
64.677575
20
54.563362
11
61.207000
21
57.195500
0
LINE
8
Layer 1
10
61.207000
20
57.195500
11
59.343544
21
58.195630
0
LINE
8
Layer 1
10
59.343544
20
58.195630
11
56.991350
21
59.218212
0
LINE
8
Layer 1
10
56.991350
20
59.218212
11
54.542106
21
60.107239
0
LINE
8
Layer 1
10
54.542106
20
60.107239
11
52.387500
21
60.706700
0
LINE
8
Layer 1
10
52.387500
20
60.706700
11
49.879698
21
61.522145
0
LINE
8
Layer 1
10
49.879698
20
61.522145
11
48.826659
21
62.079690
0
LINE
8
Layer 1
10
48.826659
20
62.079690
11
47.928988
21
62.719313
0
LINE
8
Layer 1
10
47.928988
20
62.719313
11
47.202780
21
63.427658
0
LINE
8
Layer 1
10
47.202780
20
63.427658
11
46.664133
21
64.191373
0
LINE
8
Layer 1
10
46.664133
20
64.191373
11
46.329141
21
64.997105
0
LINE
8
Layer 1
10
46.329141
20
64.997105
11
46.213900
21
65.831500
0
LINE
8
Layer 1
10
46.213900
20
65.831500
11
46.168845
21
66.440562
0
LINE
8
Layer 1
10
46.168845
20
66.440562
11
46.005562
21
66.885375
0
LINE
8
Layer 1
10
46.005562
20
66.885375
11
45.681873
21
67.234600
0
LINE
8
Layer 1
10
45.681873
20
67.234600
11
45.155600
21
67.556900
0
LINE
8
Layer 1
10
45.155600
20
67.556900
11
44.611297
21
67.888478
0
LINE
8
Layer 1
10
44.611297
20
67.888478
11
44.289575
21
68.251725
0
LINE
8
Layer 1
10
44.289575
20
68.251725
11
44.136266
21
68.744084
0
LINE
8
Layer 1
10
44.136266
20
68.744084
11
44.097200
21
69.463000
0
LINE
8
Layer 1
10
44.097200
20
69.463000
11
43.947750
21
70.552537
0
LINE
8
Layer 1
10
43.947750
20
70.552537
11
43.580800
21
71.250500
0
LINE
8
Layer 1
10
43.580800
20
71.250500
11
43.319430
21
71.413209
0
LINE
8
Layer 1
10
43.319430
20
71.413209
11
43.191662
21
71.299375
0
LINE
8
Layer 1
10
43.191662
20
71.299375
11
43.268200
21
69.957600
0
LINE
8
Layer 1
10
43.268200
20
69.957600
11
43.357392
21
68.998919
0
LINE
8
Layer 1
10
43.357392
20
68.998919
11
43.301637
21
68.429300
0
LINE
8
Layer 1
10
43.301637
20
68.429300
11
43.045464
21
68.086556
0
LINE
8
Layer 1
10
43.045464
20
68.086556
11
42.533400
21
67.808500
0
LINE
8
Layer 1
10
42.533400
20
67.808500
11
41.306997
21
67.499320
0
LINE
8
Layer 1
10
41.306997
20
67.499320
11
39.692300
21
67.394937
0
LINE
8
Layer 1
10
39.692300
20
67.394937
11
38.078653
21
67.495736
0
LINE
8
Layer 1
10
38.078653
20
67.495736
11
36.855400
21
67.802100
0
LINE
8
Layer 1
10
36.855400
20
67.802100
11
36.359875
21
68.078048
0
LINE
8
Layer 1
10
36.359875
20
68.078048
11
36.096400
21
68.428163
0
LINE
8
Layer 1
10
36.096400
20
68.428163
11
36.009850
21
68.997145
0
LINE
8
Layer 1
10
36.009850
20
68.997145
11
36.045100
21
69.929700
0
LINE
8
Layer 1
10
36.045100
20
69.929700
11
36.048338
21
71.206738
0
LINE
8
Layer 1
10
36.048338
20
71.206738
11
35.931180
21
71.340942
0
LINE
8
Layer 1
10
35.931180
20
71.340942
11
35.718800
21
71.201800
 0 
ENDSEC
 0 
EOF