<?xml version="1.0" encoding="UTF-8" standalone="no"?>
<!DOCTYPE svg PUBLIC "-//W3C//DTD SVG 20010904//EN"
              "http://www.w3.org/TR/2001/REC-SVG-20010904/DTD/svg10.dtd">

<svg xmlns="http://www.w3.org/2000/svg"
     width="6.4in" height="3.6in"
     viewBox="0 0 1920 1080">
  <path id="outline"
        fill="none" stroke="black" stroke-width="1"
        d="M 858.00,93.00
           C 859.87,92.32 862.68,91.09 864.69,91.77
             867.18,92.61 867.61,96.76 867.83,99.00
             868.30,103.82 865.68,114.23 864.10,119.00
             858.27,136.61 829.22,150.83 842.77,171.00
             844.50,173.57 846.61,175.44 849.00,177.38
             860.62,186.81 874.39,183.93 888.00,183.15
             888.00,183.15 898.00,183.15 898.00,183.15
             898.00,183.15 905.00,182.47 905.00,182.47
             905.00,182.47 912.00,182.47 912.00,182.47
             912.00,182.47 935.58,180.22 935.58,180.22
             935.58,180.22 966.00,179.00 966.00,179.00
             972.15,178.98 976.87,179.65 982.96,177.79
             990.39,175.52 986.63,172.66 996.28,174.17
             1005.13,175.55 1014.82,159.96 1014.38,151.00
             1014.18,146.84 1014.34,137.53 1012.07,134.39
             1010.03,131.57 995.80,123.88 992.01,121.24
             987.02,117.75 982.79,111.57 980.44,106.00
             978.03,100.30 978.35,96.00 978.49,90.02
             978.55,87.39 979.47,84.04 982.94,84.82
             985.01,85.29 986.00,87.19 986.66,89.02
             986.66,89.02 990.00,106.00 990.00,106.00
             990.00,106.00 1000.00,113.97 1000.00,113.97
             1006.46,118.11 1015.49,121.37 1019.66,128.02
             1023.71,134.47 1023.01,142.70 1023.00,150.00
             1022.97,165.54 1014.74,176.30 1001.00,183.00
             1001.00,183.00 1014.68,205.00 1014.68,205.00
             1014.68,205.00 1019.31,214.00 1019.31,214.00
             1019.31,214.00 1024.69,223.00 1024.69,223.00
             1024.69,223.00 1035.26,250.00 1035.26,250.00
             1035.26,250.00 1043.00,266.00 1043.00,266.00
             1049.18,251.65 1053.66,247.14 1061.42,234.96
             1063.04,232.42 1069.37,222.31 1069.69,220.00
             1070.01,217.76 1066.86,204.32 1065.18,202.31
             1063.32,200.06 1061.21,200.05 1059.13,198.42
             1055.28,195.42 1055.06,191.48 1055.00,187.00
             1055.00,187.00 1055.51,169.00 1055.51,169.00
             1055.51,169.00 1054.09,161.00 1054.09,161.00
             1053.76,157.05 1053.69,150.61 1052.15,147.01
             1047.24,135.49 1039.46,149.64 1035.00,137.00
             1035.00,137.00 1040.42,134.72 1040.42,134.72
             1043.71,132.98 1044.84,130.57 1049.00,130.43
             1063.68,129.93 1064.03,139.97 1066.65,151.00
             1066.65,151.00 1072.38,168.00 1072.38,168.00
             1072.38,168.00 1074.91,188.00 1074.91,188.00
             1074.91,188.00 1075.44,198.00 1075.44,198.00
             1077.01,208.06 1078.12,211.47 1084.85,219.28
             1086.19,220.84 1087.86,223.55 1089.96,223.94
             1090.95,224.12 1093.85,223.25 1095.00,223.00
             1098.29,231.12 1100.67,232.11 1108.00,236.14
             1110.27,237.39 1112.47,238.91 1115.00,239.58
             1115.00,239.58 1128.00,241.27 1128.00,241.27
             1128.00,241.27 1141.00,243.54 1141.00,243.54
             1141.00,243.54 1147.00,245.71 1147.00,245.71
             1147.00,245.71 1160.00,246.83 1160.00,246.83
             1160.00,246.83 1190.00,252.00 1190.00,252.00
             1190.00,252.00 1189.00,248.00 1189.00,248.00
             1194.93,245.98 1195.44,246.85 1200.00,251.00
             1200.00,251.00 1198.00,254.00 1198.00,254.00
             1198.00,254.00 1208.83,255.93 1208.83,255.93
             1208.83,255.93 1223.00,257.21 1223.00,257.21
             1223.00,257.21 1232.00,259.11 1232.00,259.11
             1232.00,259.11 1250.00,260.00 1250.00,260.00
             1259.79,260.05 1260.10,262.10 1268.00,263.16
             1268.00,263.16 1282.00,263.16 1282.00,263.16
             1282.00,263.16 1300.00,265.63 1300.00,265.63
             1300.00,265.63 1307.00,267.31 1307.00,267.31
             1307.00,267.31 1314.42,267.31 1314.42,267.31
             1314.42,267.31 1333.00,270.12 1333.00,270.12
             1333.00,270.12 1353.00,272.72 1353.00,272.72
             1353.00,272.72 1385.00,281.25 1385.00,281.25
             1385.00,281.25 1408.00,287.09 1408.00,287.09
             1408.00,287.09 1428.91,295.86 1428.91,295.86
             1428.91,295.86 1439.00,302.09 1439.00,302.09
             1439.00,302.09 1451.00,308.19 1451.00,308.19
             1451.00,308.19 1464.00,313.51 1464.00,313.51
             1466.54,314.21 1469.45,313.96 1471.78,315.31
             1474.68,317.00 1474.38,319.35 1480.02,323.88
             1480.02,323.88 1496.99,336.43 1496.99,336.43
             1496.99,336.43 1511.17,350.91 1511.17,350.91
             1511.17,350.91 1521.96,360.09 1521.96,360.09
             1525.99,363.99 1534.71,374.69 1538.28,379.42
             1538.28,379.42 1548.30,397.00 1548.30,397.00
             1556.41,408.34 1565.03,414.18 1567.00,429.00
             1554.87,428.85 1555.74,423.44 1549.82,415.00
             1549.82,415.00 1542.27,405.83 1542.27,405.83
             1542.27,405.83 1527.00,383.00 1527.00,383.00
             1527.00,383.00 1508.52,408.00 1508.52,408.00
             1508.52,408.00 1500.51,425.00 1500.51,425.00
             1500.51,425.00 1490.42,442.00 1490.42,442.00
             1490.42,442.00 1486.74,451.00 1486.74,451.00
             1486.74,451.00 1476.16,471.00 1476.16,471.00
             1471.35,480.35 1470.52,485.13 1467.86,495.00
             1467.11,497.80 1467.17,501.84 1463.85,502.80
             1462.56,503.26 1461.27,503.13 1460.00,502.80
             1460.00,502.80 1443.00,494.40 1443.00,494.40
             1438.20,492.50 1423.79,487.62 1419.09,487.70
             1419.09,487.70 1407.00,491.00 1407.00,491.00
             1407.00,491.00 1406.00,483.00 1406.00,483.00
             1406.00,483.00 1395.00,480.36 1395.00,480.36
             1395.00,480.36 1367.00,476.95 1367.00,476.95
             1367.00,476.95 1350.00,476.95 1350.00,476.95
             1350.00,476.95 1340.00,478.91 1340.00,478.91
             1340.00,478.91 1323.00,478.91 1323.00,478.91
             1323.00,478.91 1309.00,480.91 1309.00,480.91
             1309.00,480.91 1286.00,483.96 1286.00,483.96
             1286.00,483.96 1278.00,483.96 1278.00,483.96
             1278.00,483.96 1262.00,489.00 1262.00,489.00
             1257.14,486.82 1245.45,490.46 1240.00,491.55
             1227.63,494.03 1209.87,498.85 1198.00,503.09
             1198.00,503.09 1182.00,509.83 1182.00,509.83
             1182.00,509.83 1175.00,512.41 1175.00,512.41
             1160.39,519.12 1138.08,532.50 1127.09,544.01
             1115.50,556.16 1109.95,569.58 1103.68,575.78
             1100.88,578.53 1098.64,578.67 1095.66,580.98
             1092.41,583.49 1084.88,591.10 1082.00,594.28
             1082.00,594.28 1068.63,612.00 1068.63,612.00
             1068.63,612.00 1060.22,621.28 1060.22,621.28
             1060.22,621.28 1046.13,642.00 1046.13,642.00
             1046.13,642.00 1040.33,654.00 1040.33,654.00
             1040.33,654.00 1024.32,679.00 1024.32,679.00
             1024.32,679.00 1018.00,694.00 1018.00,694.00
             1018.00,694.00 1013.13,704.00 1013.13,704.00
             1013.13,704.00 1009.62,717.00 1009.62,717.00
             1009.10,720.74 1010.54,720.37 1009.00,726.00
             1003.54,723.42 1001.66,720.43 997.58,716.28
             997.58,716.28 989.17,708.00 989.17,708.00
             980.48,698.31 984.19,699.00 972.00,691.00
             972.00,691.00 972.00,685.00 972.00,685.00
             972.00,685.00 964.00,686.00 964.00,686.00
             964.00,686.00 964.00,683.00 964.00,683.00
             964.00,683.00 967.00,683.00 967.00,683.00
             964.58,677.78 952.36,663.26 948.00,659.04
             948.00,659.04 939.04,650.97 939.04,650.97
             939.04,650.97 924.83,635.44 924.83,635.44
             924.83,635.44 908.00,620.83 908.00,620.83
             908.00,620.83 894.01,607.00 894.01,607.00
             894.01,607.00 881.83,593.09 881.83,593.09
             881.83,593.09 869.30,583.52 869.30,583.52
             869.30,583.52 861.79,575.09 861.79,575.09
             858.46,571.64 856.59,571.87 855.00,567.00
             855.00,567.00 859.00,567.00 859.00,567.00
             859.00,567.00 860.08,555.00 860.08,555.00
             860.08,555.00 860.08,537.00 860.08,537.00
             860.08,537.00 860.92,530.00 860.92,530.00
             860.92,530.00 860.09,523.00 860.09,523.00
             860.09,523.00 860.09,514.00 860.09,514.00
             860.09,514.00 846.42,533.00 846.42,533.00
             846.42,533.00 829.75,554.00 829.75,554.00
             829.75,554.00 818.60,570.00 818.60,570.00
             818.60,570.00 815.19,575.91 815.19,575.91
             815.19,575.91 808.75,583.04 808.75,583.04
             803.06,590.21 797.23,604.50 789.72,608.79
             789.72,608.79 783.00,611.00 783.00,611.00
             783.00,611.00 787.00,602.00 787.00,602.00
             787.00,602.00 777.00,599.00 777.00,599.00
             778.13,587.45 772.30,593.14 762.00,584.79
             762.00,584.79 751.00,575.46 751.00,575.46
             738.81,566.00 725.50,557.10 712.00,549.69
             712.00,549.69 704.00,545.04 704.00,545.04
             704.00,545.04 676.00,535.60 676.00,535.60
             676.00,535.60 667.00,533.85 667.00,533.85
             667.00,533.85 626.00,523.32 626.00,523.32
             626.00,523.32 609.00,521.91 609.00,521.91
             609.00,521.91 582.00,519.61 582.00,519.61
             582.00,519.61 576.00,519.61 576.00,519.61
             576.00,519.61 564.00,517.46 564.00,517.46
             564.00,517.46 546.00,515.75 546.00,515.75
             546.00,515.75 533.96,515.75 533.96,515.75
             508.49,515.99 508.58,516.51 484.00,519.71
             484.00,519.71 476.00,520.29 476.00,520.29
             469.08,521.14 456.53,523.54 450.00,525.67
             450.00,525.67 379.00,554.71 379.00,554.71
             379.00,554.71 362.00,562.98 362.00,562.98
             360.11,563.74 356.50,565.34 354.62,563.94
             351.75,561.80 355.28,558.51 357.06,557.24
             360.64,554.68 372.70,548.53 377.00,546.80
             377.00,546.80 387.00,543.12 387.00,543.12
             387.00,543.12 401.00,536.31 401.00,536.31
             401.00,536.31 423.00,527.72 423.00,527.72
             423.00,527.72 446.00,517.59 446.00,517.59
             446.00,517.59 465.00,512.32 465.00,512.32
             467.35,511.90 471.55,512.06 472.77,509.57
             473.84,507.38 470.32,498.65 469.51,496.00
             469.51,496.00 467.41,487.00 467.41,487.00
             467.41,487.00 457.00,459.00 457.00,459.00
             455.16,470.96 452.77,472.65 454.00,487.00
             449.02,485.18 450.99,482.61 451.10,478.00
             451.43,464.99 452.16,469.83 453.37,460.00
             453.37,460.00 454.00,453.00 454.00,453.00
             454.00,453.00 455.00,455.00 455.00,455.00
             454.21,449.96 451.32,441.84 448.00,438.00
             448.00,438.00 443.42,465.00 443.42,465.00
             443.42,465.00 441.00,477.00 441.00,477.00
             437.93,457.46 451.94,437.48 441.94,417.00
             441.94,417.00 441.94,431.00 441.94,431.00
             441.94,431.00 440.13,439.00 440.13,439.00
             440.13,439.00 437.00,458.00 437.00,458.00
             437.00,458.00 439.00,461.00 439.00,461.00
             439.00,461.00 436.00,462.00 436.00,462.00
             435.22,454.03 437.08,450.45 437.83,443.00
             437.83,443.00 438.75,431.00 438.75,431.00
             438.75,431.00 438.75,417.00 438.75,417.00
             438.84,410.45 439.72,405.55 435.00,400.00
             434.23,406.08 432.27,412.09 430.69,418.00
             430.69,418.00 427.58,435.00 427.58,435.00
             426.93,439.54 427.86,445.00 424.00,448.00
             424.00,448.00 426.44,425.00 426.44,425.00
             427.90,415.91 431.21,407.36 430.00,398.00
             430.00,398.00 426.00,405.00 426.00,405.00
             426.00,405.00 427.00,400.00 427.00,400.00
             427.00,400.00 408.00,412.00 408.00,412.00
             408.00,412.00 417.81,438.00 417.81,438.00
             417.81,438.00 423.91,450.00 423.91,450.00
             423.91,450.00 428.93,466.00 428.93,466.00
             428.93,466.00 436.99,482.00 436.99,482.00
             436.99,482.00 440.52,493.00 440.52,493.00
             442.54,499.14 445.43,505.45 443.00,512.00
             443.00,512.00 431.69,481.00 431.69,481.00
             431.69,481.00 425.71,469.00 425.71,469.00
             425.71,469.00 419.25,451.00 419.25,451.00
             419.25,451.00 415.52,444.00 415.52,444.00
             415.52,444.00 404.00,415.00 404.00,415.00
             404.00,415.00 382.00,430.02 382.00,430.02
             356.20,450.14 322.91,485.70 308.18,515.00
             304.74,521.85 301.62,540.33 301.98,548.00
             302.14,551.54 302.74,556.49 300.18,559.42
             297.62,562.33 294.14,560.78 291.09,560.00
             291.10,553.29 290.25,550.12 291.09,543.00
             291.09,543.00 292.82,535.00 292.82,535.00
             293.33,530.86 293.16,527.15 294.46,523.00
             298.38,510.45 308.84,496.39 316.50,485.83
             332.90,463.21 345.23,450.18 366.83,432.42
             374.48,426.14 393.86,411.19 402.00,407.00
             402.00,407.00 402.00,401.00 402.00,401.00
             403.70,401.81 404.99,402.71 407.00,402.55
             409.56,402.35 424.10,393.20 427.00,391.21
             427.00,391.21 453.00,376.65 453.00,376.65
             453.00,376.65 465.00,368.76 465.00,368.76
             465.00,368.76 473.00,365.02 473.00,365.02
             473.00,365.02 486.00,358.10 486.00,358.10
             486.00,358.10 527.00,342.54 527.00,342.54
             527.00,342.54 546.00,333.95 546.00,333.95
             546.00,333.95 554.00,331.13 554.00,331.13
             554.00,331.13 569.00,324.69 569.00,324.69
             569.00,324.69 591.00,318.33 591.00,318.33
             591.00,318.33 600.00,316.63 600.00,316.63
             600.00,316.63 629.00,306.29 629.00,306.29
             629.00,306.29 668.00,300.01 668.00,300.01
             668.00,300.01 678.00,300.55 678.00,300.55
             678.00,300.55 694.00,298.75 694.00,298.75
             706.43,296.71 704.87,294.12 709.17,293.24
             709.17,293.24 717.00,293.24 717.00,293.24
             717.00,293.24 732.00,289.53 732.00,289.53
             738.10,287.21 755.67,277.62 760.58,273.57
             770.60,265.32 771.04,263.45 777.25,253.00
             778.91,250.21 780.63,248.13 781.74,245.00
             781.74,245.00 783.74,236.00 783.74,236.00
             785.19,230.23 785.92,229.29 786.00,223.00
             786.00,223.00 781.18,183.00 781.18,183.00
             781.18,183.00 782.58,175.00 782.58,175.00
             784.59,164.16 786.85,161.08 798.00,159.00
             796.91,165.84 789.31,173.54 789.18,182.00
             789.18,182.00 793.54,208.00 793.54,208.00
             793.54,208.00 793.54,215.00 793.54,215.00
             793.54,215.00 794.81,222.00 794.81,222.00
             794.95,227.91 791.20,244.27 789.00,250.00
             794.05,246.74 803.09,242.89 806.30,238.95
             809.32,235.22 810.27,230.99 814.07,231.64
             817.73,232.27 819.26,235.95 820.41,239.00
             820.41,239.00 827.77,262.00 827.77,262.00
             827.77,262.00 835.97,284.00 835.97,284.00
             839.46,292.50 841.98,293.30 841.90,303.83
             841.85,310.20 845.44,315.80 846.63,322.00
             846.63,322.00 847.60,340.00 847.60,340.00
             848.45,344.59 855.63,362.67 858.00,367.00
             858.00,367.00 857.00,353.00 857.00,353.00
             857.00,353.00 857.00,311.00 857.00,311.00
             857.00,311.00 855.86,290.00 855.86,290.00
             855.86,290.00 855.86,281.00 855.86,281.00
             855.86,281.00 855.86,272.00 855.86,272.00
             855.86,272.00 854.78,255.00 854.78,255.00
             854.52,251.68 853.48,248.37 854.78,245.09
             855.81,242.24 858.78,239.85 860.92,237.72
             868.06,230.60 881.21,223.15 885.00,214.00
             887.53,214.67 887.72,213.01 889.00,211.00
             889.00,211.00 894.00,205.00 894.00,205.00
             894.00,205.00 893.00,210.00 893.00,210.00
             900.04,204.20 902.85,204.11 898.00,198.00
             898.00,198.00 902.00,199.00 902.00,199.00
             902.00,199.00 908.42,197.47 908.42,197.47
             908.42,197.47 914.00,191.00 914.00,191.00
             914.00,191.00 907.00,196.00 907.00,196.00
             907.00,196.00 910.00,192.00 910.00,192.00
             910.00,192.00 907.00,193.00 907.00,193.00
             903.14,190.38 896.64,191.96 892.00,192.00
             892.00,192.00 879.00,192.99 879.00,192.99
             873.49,193.11 860.19,191.84 855.00,190.28
             844.76,187.21 840.76,183.99 835.26,175.00
             831.71,169.20 829.99,165.03 830.52,158.00
             831.78,141.20 842.88,136.10 851.37,124.00
             857.90,114.69 859.98,104.04 858.00,93.00 Z
           M 1061.00,391.00
           C 1061.00,391.00 1063.27,379.00 1063.27,379.00
             1063.27,379.00 1058.21,353.00 1058.21,353.00
             1058.21,353.00 1053.09,327.00 1053.09,327.00
             1053.09,327.00 1046.86,310.00 1046.86,310.00
             1046.86,310.00 1041.16,292.00 1041.16,292.00
             1041.16,292.00 1034.09,273.00 1034.09,273.00
             1034.09,273.00 1030.91,263.00 1030.91,263.00
             1030.91,263.00 1025.25,250.00 1025.25,250.00
             1025.25,250.00 1019.69,235.00 1019.69,235.00
             1019.69,235.00 1010.49,217.00 1010.49,217.00
             1004.50,204.64 1004.50,207.10 998.05,197.00
             996.68,194.84 993.10,188.18 991.37,186.79
             989.16,185.47 985.48,186.22 983.00,186.79
             983.00,186.79 965.00,188.27 965.00,188.27
             965.00,188.27 940.00,190.00 940.00,190.00
             936.71,190.03 931.94,189.59 929.00,191.01
             925.36,192.76 922.31,196.87 919.54,199.73
             917.72,201.61 914.54,203.96 913.79,206.29
             913.79,206.29 913.79,226.00 913.79,226.00
             913.79,226.00 915.00,237.00 915.00,237.00
             915.00,237.00 915.00,254.00 915.00,254.00
             915.00,254.00 916.00,290.00 916.00,290.00
             916.00,290.00 917.00,305.00 917.00,305.00
             917.00,305.00 917.00,322.00 917.00,322.00
             917.00,322.00 917.91,340.00 917.91,340.00
             917.91,340.00 917.00,352.00 917.00,352.00
             917.00,352.00 917.00,366.00 917.00,366.00
             917.00,366.00 915.00,385.00 915.00,385.00
             915.00,385.00 915.00,394.00 915.00,394.00
             915.00,394.00 913.29,404.00 913.29,404.00
             913.29,404.00 912.00,425.00 912.00,425.00
             911.88,435.37 912.05,445.71 910.57,456.00
             910.57,456.00 905.21,485.00 905.21,485.00
             905.21,485.00 906.02,492.83 906.02,492.83
             905.92,495.74 903.84,497.97 904.10,504.00
             904.10,504.00 906.00,529.00 906.00,529.00
             906.00,529.00 904.40,545.00 904.40,545.00
             903.82,551.66 903.54,555.22 911.91,555.00
             911.65,556.92 911.25,557.99 911.91,560.00
             913.26,565.19 923.76,574.02 928.00,577.83
             928.00,577.83 938.91,587.09 938.91,587.09
             938.91,587.09 959.42,608.49 959.42,608.49
             959.42,608.49 979.00,624.26 979.00,624.26
             989.70,633.09 981.20,634.71 992.00,639.00
             992.00,639.00 986.33,620.00 986.33,620.00
             986.33,620.00 982.12,596.00 982.12,596.00
             982.12,596.00 975.46,571.00 975.46,571.00
             975.46,571.00 972.91,554.00 972.91,554.00
             972.91,554.00 965.44,515.00 965.44,515.00
             965.44,515.00 962.72,493.00 962.72,493.00
             962.72,493.00 960.51,484.00 960.51,484.00
             960.51,484.00 957.08,466.00 957.08,466.00
             957.08,466.00 952.44,445.00 952.44,445.00
             952.44,445.00 950.00,424.00 950.00,424.00
             949.67,421.56 947.68,411.21 952.51,411.59
             957.57,411.99 957.39,421.43 958.29,425.00
             958.29,425.00 962.08,447.00 962.08,447.00
             962.08,447.00 966.87,470.00 966.87,470.00
             966.87,470.00 972.86,499.00 972.86,499.00
             972.86,499.00 974.46,512.00 974.46,512.00
             974.46,512.00 978.54,532.00 978.54,532.00
             978.54,532.00 979.61,541.00 979.61,541.00
             979.61,541.00 983.54,559.00 983.54,559.00
             983.54,559.00 986.24,575.00 986.24,575.00
             986.24,575.00 991.64,596.00 991.64,596.00
             991.64,596.00 998.72,631.00 998.72,631.00
             998.72,631.00 1004.93,648.91 1004.93,648.91
             1007.95,653.71 1010.54,652.14 1013.00,659.00
             1013.00,659.00 1007.00,656.00 1007.00,656.00
             1007.00,656.00 1011.00,660.00 1011.00,660.00
             1008.03,664.91 1012.49,672.38 1013.00,678.00
             1018.94,673.24 1017.88,670.91 1021.92,665.00
             1021.92,665.00 1038.31,637.00 1038.31,637.00
             1038.31,637.00 1044.94,627.00 1044.94,627.00
             1044.94,627.00 1049.62,619.00 1049.62,619.00
             1049.62,619.00 1062.24,605.00 1062.24,605.00
             1062.24,605.00 1068.44,594.00 1068.44,594.00
             1068.44,594.00 1088.32,566.00 1088.32,566.00
             1088.32,566.00 1111.00,546.17 1111.00,546.17
             1119.01,539.73 1118.71,537.68 1123.26,533.75
             1131.83,526.33 1139.92,527.05 1139.25,513.00
             1139.25,513.00 1137.00,487.00 1137.00,487.00
             1137.00,487.00 1136.22,471.00 1136.22,471.00
             1136.22,471.00 1136.94,449.00 1136.94,449.00
             1136.94,449.00 1136.01,436.00 1136.01,436.00
             1136.01,436.00 1137.00,424.00 1137.00,424.00
             1137.00,424.00 1137.00,398.00 1137.00,398.00
             1137.00,398.00 1142.00,346.00 1142.00,346.00
             1142.00,346.00 1143.83,326.00 1143.83,326.00
             1143.83,326.00 1149.01,280.00 1149.01,280.00
             1149.87,274.85 1155.50,260.90 1153.56,257.43
             1151.74,254.18 1143.69,254.44 1140.00,253.65
             1140.00,253.65 1116.00,249.02 1116.00,249.02
             1108.55,246.81 1105.99,243.81 1097.00,243.00
             1097.11,247.53 1095.12,252.18 1094.43,257.00
             1094.43,257.00 1092.74,271.00 1092.74,271.00
             1092.74,271.00 1089.81,283.00 1089.81,283.00
             1089.81,283.00 1088.07,293.00 1088.07,293.00
             1088.07,293.00 1082.50,310.00 1082.50,310.00
             1080.39,318.94 1078.02,333.90 1078.00,343.00
             1077.99,349.66 1077.12,353.67 1076.23,360.04
             1075.25,366.99 1074.95,373.99 1075.00,381.00
             1075.00,381.00 1076.82,399.00 1076.82,399.00
             1076.49,401.94 1074.44,405.14 1071.05,403.83
             1064.16,401.17 1070.15,392.60 1061.00,391.00 Z
           M 899.00,201.00
           C 898.95,204.30 897.78,204.59 895.00,206.00
             895.00,206.00 899.00,201.00 899.00,201.00 Z
           M 903.00,210.00
           C 896.78,211.01 894.67,214.47 890.00,218.41
             890.00,218.41 870.02,236.09 870.02,236.09
             865.70,240.26 865.22,243.35 859.80,246.00
             859.80,246.00 859.80,260.00 859.80,260.00
             859.80,260.00 861.00,280.00 861.00,280.00
             861.00,280.00 860.37,293.00 860.37,293.00
             860.79,301.13 863.18,306.19 862.33,315.00
             861.79,319.86 862.36,319.78 862.33,324.00
             862.33,324.00 862.33,332.99 862.33,332.99
             861.98,335.43 861.60,337.14 864.00,338.00
             864.00,338.00 863.00,370.00 863.00,370.00
             863.00,370.00 864.55,398.00 864.55,398.00
             864.55,398.00 870.56,413.00 870.56,413.00
             870.56,413.00 872.46,425.00 872.46,425.00
             872.46,425.00 878.00,443.00 878.00,443.00
             878.00,443.00 884.96,460.00 884.96,460.00
             884.96,460.00 889.00,474.00 889.00,474.00
             889.00,474.00 894.00,467.00 894.00,467.00
             894.00,467.00 898.00,469.00 898.00,469.00
             901.72,456.84 901.98,444.58 902.00,432.00
             902.00,432.00 904.00,406.00 904.00,406.00
             899.45,408.91 895.06,418.23 892.00,423.00
             892.00,423.00 902.44,401.00 902.44,401.00
             902.44,401.00 906.00,387.00 906.00,387.00
             901.83,389.57 892.75,406.92 891.00,412.00
             891.00,412.00 896.00,409.00 896.00,409.00
             892.16,415.63 890.40,418.41 884.00,423.00
             885.10,416.25 888.74,410.13 891.64,404.00
             891.64,404.00 902.90,378.00 902.90,378.00
             906.26,369.62 909.72,362.08 906.00,353.00
             906.00,353.00 894.40,374.00 894.40,374.00
             894.40,374.00 887.00,386.00 887.00,386.00
             887.00,386.00 897.62,366.00 897.62,366.00
             897.62,366.00 900.59,359.28 900.59,359.28
             900.59,359.28 907.12,345.00 907.12,345.00
             907.12,345.00 907.12,334.00 907.12,334.00
             907.12,334.00 907.12,324.00 907.12,324.00
             907.12,324.00 886.00,361.00 886.00,361.00
             887.66,353.12 897.60,333.97 901.79,326.00
             903.64,322.48 905.83,319.98 906.88,316.00
             908.10,311.41 906.65,301.02 906.17,296.00
             905.81,292.25 906.44,289.63 905.00,286.00
             901.93,296.31 893.45,315.56 886.00,323.00
             886.00,323.00 896.95,298.00 896.95,298.00
             896.95,298.00 905.21,281.91 905.21,281.91
             905.21,281.91 906.00,266.00 906.00,266.00
             900.98,270.26 891.71,287.46 888.42,294.00
             885.71,299.39 884.78,303.06 880.00,307.00
             880.00,307.00 897.42,273.00 897.42,273.00
             901.12,265.89 904.88,262.28 905.00,254.00
             905.00,254.00 905.00,241.00 905.00,241.00
             905.00,241.00 898.05,251.00 898.05,251.00
             898.05,251.00 881.00,277.00 881.00,277.00
             881.00,277.00 888.71,264.00 888.71,264.00
             888.71,264.00 901.14,241.00 901.14,241.00
             904.19,235.34 906.88,225.73 903.00,220.00
             903.00,220.00 894.09,236.00 894.09,236.00
             894.09,236.00 884.00,252.00 884.00,252.00
             884.00,252.00 901.67,217.00 901.67,217.00
             901.67,217.00 903.00,210.00 903.00,210.00 Z
           M 1077.00,225.00
           C 1077.00,225.00 1074.00,225.00 1074.00,225.00
             1074.00,225.00 1055.11,253.00 1055.11,253.00
             1052.28,256.77 1045.44,264.74 1044.44,269.00
             1043.15,274.49 1047.41,282.00 1049.42,287.00
             1049.42,287.00 1054.24,303.00 1054.24,303.00
             1054.24,303.00 1063.00,324.00 1063.00,324.00
             1063.00,324.00 1071.45,300.00 1071.45,300.00
             1078.21,283.38 1082.07,279.05 1085.00,260.00
             1080.79,262.60 1080.88,265.64 1079.14,270.00
             1079.14,270.00 1070.35,289.00 1070.35,289.00
             1067.87,294.81 1067.83,298.87 1061.00,300.00
             1061.00,300.00 1066.61,291.96 1066.61,291.96
             1066.61,291.96 1074.92,274.00 1074.92,274.00
             1076.86,270.03 1080.11,264.41 1079.00,260.00
             1076.15,265.40 1073.70,272.11 1069.00,276.00
             1069.00,276.00 1068.00,275.00 1068.00,275.00
             1068.00,275.00 1087.00,241.00 1087.00,241.00
             1079.64,246.58 1075.03,257.63 1069.00,265.00
             1069.00,265.00 1080.72,244.00 1080.72,244.00
             1082.94,240.63 1085.97,237.12 1085.00,233.00
             1085.00,233.00 1071.00,251.00 1071.00,251.00
             1074.72,242.20 1079.48,239.55 1081.00,229.00
             1081.00,229.00 1077.00,225.00 1077.00,225.00 Z
           M 872.00,226.00
           C 872.00,226.00 873.00,226.00 873.00,226.00
             873.00,226.00 872.00,227.00 872.00,227.00
             872.00,227.00 872.00,226.00 872.00,226.00 Z
           M 813.00,243.00
           C 808.00,245.38 808.28,246.76 804.72,249.02
             800.90,251.44 796.07,252.74 792.51,255.72
             792.51,255.72 777.00,271.72 777.00,271.72
             769.17,278.43 748.59,291.22 739.00,295.74
             733.22,298.46 718.45,300.08 715.08,305.25
             713.83,307.17 713.56,311.75 713.84,314.00
             713.84,314.00 713.84,336.00 713.84,336.00
             713.88,364.47 710.80,386.36 703.89,414.00
             703.89,414.00 701.08,427.00 701.08,427.00
             701.08,427.00 693.54,446.00 693.54,446.00
             693.54,446.00 690.79,458.00 690.79,458.00
             690.79,458.00 686.09,470.00 686.09,470.00
             686.09,470.00 679.38,491.00 679.38,491.00
             679.38,491.00 672.78,503.00 672.78,503.00
             669.16,510.49 668.67,514.17 662.00,520.00
             666.96,522.95 675.29,524.22 681.00,525.73
             681.00,525.73 714.00,537.89 714.00,537.89
             728.98,545.77 743.31,555.11 756.91,565.08
             764.60,570.72 769.62,577.50 779.00,582.00
             777.42,575.75 774.87,562.21 775.01,556.00
             775.01,556.00 775.93,531.00 775.93,531.00
             775.93,531.00 769.00,480.00 769.00,480.00
             769.00,480.00 768.17,463.00 768.17,463.00
             768.01,460.85 769.33,452.37 772.99,456.58
             774.39,458.19 776.09,467.77 776.25,470.28
             776.25,470.28 779.28,494.00 779.28,494.00
             779.28,494.00 781.29,514.00 781.29,514.00
             782.44,522.75 783.98,523.73 784.00,534.00
             784.00,534.00 784.00,556.00 784.00,556.00
             784.00,556.00 786.91,577.00 786.91,577.00
             786.91,577.00 788.00,600.00 788.00,600.00
             794.02,594.73 796.14,585.58 801.67,578.17
             801.67,578.17 809.96,568.00 809.96,568.00
             809.96,568.00 818.90,554.00 818.90,554.00
             818.90,554.00 839.12,528.00 839.12,528.00
             839.12,528.00 852.60,509.00 852.60,509.00
             858.47,501.56 862.51,496.81 870.00,490.81
             873.06,488.36 879.07,484.85 879.94,480.99
             880.39,479.00 879.26,475.10 878.79,473.00
             876.44,462.36 876.05,462.65 872.42,453.00
             869.75,445.88 866.96,438.41 865.23,431.00
             865.23,431.00 862.22,416.00 862.22,416.00
             862.22,416.00 855.79,400.00 855.79,400.00
             855.79,400.00 848.80,371.00 848.80,371.00
             848.80,371.00 839.32,342.00 839.32,342.00
             839.32,342.00 837.04,322.00 837.04,322.00
             837.04,322.00 833.32,310.00 833.32,310.00
             833.32,310.00 832.45,298.00 832.45,298.00
             832.45,298.00 825.37,281.00 825.37,281.00
             825.37,281.00 813.00,243.00 813.00,243.00 Z
           M 1184.00,261.00
           C 1184.00,261.00 1165.00,258.00 1165.00,258.00
             1165.00,258.00 1159.24,276.00 1159.24,276.00
             1152.99,302.40 1152.83,336.59 1150.91,364.00
             1150.91,364.00 1147.00,395.00 1147.00,395.00
             1147.00,395.00 1147.00,413.00 1147.00,413.00
             1147.00,413.00 1145.74,435.00 1145.74,435.00
             1145.74,435.00 1146.32,452.00 1146.32,452.00
             1146.32,452.00 1146.32,463.00 1146.32,463.00
             1146.32,463.00 1146.32,473.00 1146.32,473.00
             1146.32,473.00 1147.00,489.00 1147.00,489.00
             1147.13,500.67 1148.04,504.72 1150.00,516.00
             1150.00,516.00 1160.00,509.50 1160.00,509.50
             1160.00,509.50 1191.00,496.00 1191.00,496.00
             1191.00,496.00 1196.83,448.00 1196.83,448.00
             1196.83,448.00 1197.85,402.00 1197.85,402.00
             1197.85,402.00 1199.00,384.00 1199.00,384.00
             1199.00,384.00 1186.00,380.18 1186.00,380.18
             1178.54,379.25 1175.56,380.98 1169.00,381.84
             1165.99,382.24 1160.15,381.74 1159.00,385.00
             1152.48,377.53 1162.14,376.87 1167.00,376.39
             1167.00,376.39 1182.00,374.63 1182.00,374.63
             1188.99,375.16 1192.95,377.78 1199.00,380.00
             1199.00,380.00 1199.00,372.16 1199.00,372.16
             1201.31,371.16 1205.19,369.36 1206.81,372.16
             1208.21,374.91 1205.15,382.97 1204.51,386.00
             1202.51,395.55 1203.11,405.32 1203.00,415.00
             1203.00,415.00 1202.00,429.00 1202.00,429.00
             1202.00,429.00 1197.91,471.00 1197.91,471.00
             1197.60,474.76 1194.69,486.74 1195.77,489.69
             1196.87,492.71 1202.54,492.17 1204.95,491.35
             1211.57,489.09 1207.44,481.82 1215.00,475.00
             1211.92,482.83 1212.01,480.12 1212.00,489.00
             1212.00,489.00 1231.00,484.66 1231.00,484.66
             1231.00,484.66 1247.00,481.58 1247.00,481.58
             1247.00,481.58 1268.00,476.62 1268.00,476.62
             1268.00,476.62 1279.00,475.00 1279.00,475.00
             1279.00,475.00 1276.18,467.58 1276.18,467.58
             1275.89,465.83 1277.25,458.29 1277.58,456.00
             1277.58,456.00 1280.54,436.00 1280.54,436.00
             1280.54,436.00 1282.50,424.00 1282.50,424.00
             1282.50,424.00 1286.56,406.00 1286.56,406.00
             1286.56,406.00 1287.59,394.00 1287.59,394.00
             1287.59,394.00 1290.91,377.00 1290.91,377.00
             1290.91,377.00 1294.95,354.00 1294.95,354.00
             1295.34,350.76 1295.18,345.00 1298.09,343.03
             1303.62,339.29 1302.13,349.21 1305.51,352.15
             1306.91,353.36 1309.27,353.91 1311.00,354.54
             1314.87,355.95 1324.04,360.62 1327.86,359.31
             1330.53,358.40 1331.32,355.37 1332.21,353.00
             1335.44,344.44 1335.87,346.16 1336.46,337.00
             1336.97,329.13 1340.30,322.26 1342.82,315.00
             1342.82,315.00 1346.92,298.00 1346.92,298.00
             1348.60,292.01 1350.72,289.18 1352.00,282.00
             1352.00,282.00 1337.00,280.82 1337.00,280.82
             1337.00,280.82 1329.00,279.18 1329.00,279.18
             1329.00,279.18 1305.00,276.85 1305.00,276.85
             1295.18,275.63 1289.57,273.08 1279.00,273.00
             1273.39,272.96 1267.54,272.63 1262.00,271.68
             1262.00,271.68 1254.00,269.50 1254.00,269.50
             1246.87,267.82 1241.18,268.04 1234.00,268.49
             1227.79,268.88 1224.96,266.90 1220.00,266.02
             1220.00,266.02 1209.00,266.02 1209.00,266.02
             1209.00,266.02 1198.00,264.00 1198.00,264.00
             1198.00,264.00 1193.17,291.00 1193.17,291.00
             1193.17,291.00 1191.72,317.00 1191.72,317.00
             1191.72,317.00 1188.60,335.82 1188.60,335.82
             1188.60,335.82 1190.00,339.00 1190.00,339.00
             1190.00,339.00 1186.00,339.00 1186.00,339.00
             1186.00,339.00 1186.00,341.00 1186.00,341.00
             1190.69,341.22 1195.28,342.30 1200.00,341.83
             1208.06,341.04 1211.05,339.07 1218.00,337.10
             1218.00,337.10 1229.00,335.18 1229.00,335.18
             1235.91,333.62 1239.15,329.20 1242.90,329.94
             1247.49,330.83 1246.62,335.73 1246.00,339.00
             1246.00,339.00 1250.00,340.00 1250.00,340.00
             1242.22,349.50 1246.82,353.38 1244.55,364.00
             1244.55,364.00 1240.57,404.00 1240.57,404.00
             1240.57,404.00 1233.95,432.00 1233.95,432.00
             1233.95,432.00 1231.93,451.00 1231.93,451.00
             1231.59,454.90 1230.48,456.57 1234.00,459.00
             1229.14,466.87 1229.26,472.46 1226.59,476.96
             1224.17,481.02 1220.93,480.98 1219.44,476.28
             1218.18,472.28 1221.75,470.34 1220.00,465.00
             1217.91,469.39 1217.84,471.41 1213.00,473.00
             1219.70,463.15 1222.46,449.78 1223.00,438.00
             1223.00,438.00 1217.00,439.00 1217.00,439.00
             1215.68,432.97 1217.06,431.61 1219.25,426.00
             1213.21,420.13 1217.33,412.72 1219.25,406.00
             1219.25,406.00 1224.95,390.00 1224.95,390.00
             1224.95,390.00 1229.10,382.00 1229.10,382.00
             1229.10,382.00 1232.00,374.00 1232.00,374.00
             1233.68,369.28 1235.83,361.78 1234.00,357.00
             1224.88,372.18 1229.55,368.74 1226.07,377.00
             1223.27,383.64 1218.92,386.84 1218.00,395.00
             1218.00,395.00 1214.00,394.00 1214.00,394.00
             1214.00,394.00 1220.18,380.00 1220.18,380.00
             1220.18,380.00 1224.61,371.04 1224.61,371.04
             1224.61,371.04 1226.72,363.91 1226.72,363.91
             1229.69,356.87 1234.29,352.72 1235.00,345.00
             1229.03,347.53 1230.93,348.79 1228.47,354.00
             1225.65,359.99 1220.50,366.20 1221.00,373.00
             1221.00,373.00 1211.00,379.00 1211.00,379.00
             1211.00,379.00 1213.00,371.00 1213.00,371.00
             1214.52,370.51 1215.11,370.57 1216.45,369.41
             1219.88,366.43 1225.97,350.07 1228.00,345.00
             1224.34,345.20 1217.24,346.54 1214.32,348.73
             1209.94,352.04 1206.76,360.35 1197.00,363.00
             1197.00,363.00 1197.00,359.00 1197.00,359.00
             1202.88,358.18 1206.59,354.65 1210.00,350.00
             1205.05,350.11 1187.60,350.12 1193.00,359.00
             1187.85,364.48 1189.08,364.23 1182.00,368.00
             1181.33,360.09 1187.43,359.19 1191.00,351.00
             1191.00,351.00 1180.00,349.00 1180.00,349.00
             1180.00,349.00 1176.00,357.00 1176.00,357.00
             1176.00,357.00 1180.00,361.00 1180.00,361.00
             1174.06,363.71 1173.34,366.59 1169.00,362.00
             1171.95,360.09 1177.10,351.45 1178.01,348.00
             1178.60,345.79 1178.72,337.16 1178.01,335.00
             1178.01,335.00 1168.00,360.00 1168.00,360.00
             1167.34,358.15 1166.73,357.09 1167.03,355.00
             1167.41,352.32 1174.68,338.09 1176.38,335.00
             1182.23,324.35 1183.00,318.81 1183.00,307.00
             1183.00,307.00 1171.95,323.58 1171.95,323.58
             1171.95,323.58 1159.00,343.00 1159.00,343.00
             1159.29,335.56 1173.05,323.92 1172.00,316.00
             1179.12,311.28 1179.80,300.59 1181.08,293.00
             1181.08,293.00 1182.92,283.00 1182.92,283.00
             1183.16,279.88 1183.82,274.88 1182.92,272.00
             1182.92,272.00 1162.00,297.00 1162.00,297.00
             1162.00,297.00 1175.12,275.00 1175.12,275.00
             1175.12,275.00 1184.00,261.00 1184.00,261.00 Z
           M 1081.00,259.00
           C 1081.00,259.00 1080.00,259.00 1080.00,259.00
             1080.00,259.00 1081.00,260.00 1081.00,260.00
             1081.00,260.00 1081.00,259.00 1081.00,259.00 Z
           M 1447.00,316.00
           C 1447.00,316.00 1438.01,312.36 1438.01,312.36
             1438.01,312.36 1431.72,308.10 1431.72,308.10
             1431.72,308.10 1419.00,302.21 1419.00,302.21
             1419.00,302.21 1411.00,300.05 1411.00,300.05
             1411.00,300.05 1396.00,294.08 1396.00,294.08
             1396.00,294.08 1383.00,290.58 1383.00,290.58
             1383.00,290.58 1362.00,285.00 1362.00,285.00
             1362.00,285.00 1356.74,302.00 1356.74,302.00
             1356.74,302.00 1354.70,312.00 1354.70,312.00
             1354.70,312.00 1348.29,331.00 1348.29,331.00
             1348.29,331.00 1343.62,351.00 1343.62,351.00
             1343.62,351.00 1340.96,358.00 1340.96,358.00
             1339.74,361.82 1338.82,369.84 1334.80,371.54
             1332.29,372.61 1330.10,370.79 1327.83,369.98
             1327.83,369.98 1322.00,368.35 1322.00,368.35
             1322.00,368.35 1311.00,363.62 1311.00,363.62
             1308.65,362.74 1305.68,361.59 1303.30,363.04
             1300.81,364.55 1300.35,368.36 1299.93,370.99
             1299.93,370.99 1297.22,391.00 1297.22,391.00
             1296.84,393.84 1295.02,397.66 1297.22,400.00
             1297.22,400.00 1293.96,415.00 1293.96,415.00
             1293.96,415.00 1291.39,423.00 1291.39,423.00
             1291.39,423.00 1287.17,455.00 1287.17,455.00
             1287.17,455.00 1286.00,474.00 1286.00,474.00
             1294.78,473.60 1298.54,471.74 1301.09,471.53
             1301.09,471.53 1319.00,469.86 1319.00,469.86
             1323.50,469.80 1337.25,469.87 1340.69,467.69
             1343.11,466.15 1347.24,456.92 1348.00,454.00
             1348.00,454.00 1342.00,456.00 1342.00,456.00
             1345.82,449.69 1349.09,446.23 1351.76,439.00
             1353.13,435.26 1352.04,434.36 1353.48,431.42
             1353.48,431.42 1357.48,425.00 1357.48,425.00
             1357.48,425.00 1360.51,417.00 1360.51,417.00
             1360.51,417.00 1371.28,393.00 1371.28,393.00
             1371.28,393.00 1379.22,378.00 1379.22,378.00
             1385.39,364.97 1388.09,356.64 1396.38,344.00
             1400.60,337.58 1399.29,336.41 1401.16,333.18
             1401.16,333.18 1405.04,328.49 1405.04,328.49
             1405.04,328.49 1409.83,318.00 1409.83,318.00
             1410.88,315.90 1413.32,310.50 1416.53,312.15
             1420.20,314.03 1413.17,323.40 1412.00,326.00
             1418.66,325.63 1440.73,318.97 1447.00,316.00 Z
           M 1074.00,304.00
           C 1069.49,309.23 1069.14,315.70 1067.15,322.00
             1065.44,328.33 1061.74,330.81 1067.15,337.00
             1067.15,337.00 1071.37,315.00 1071.37,315.00
             1071.37,315.00 1074.00,304.00 1074.00,304.00 Z
           M 701.00,308.00
           C 701.00,308.00 697.00,307.00 697.00,307.00
             697.00,307.00 700.00,312.00 700.00,312.00
             700.00,312.00 701.00,308.00 701.00,308.00 Z
           M 684.00,309.00
           C 684.00,309.00 667.00,310.17 667.00,310.17
             667.00,310.17 656.00,312.00 656.00,312.00
             657.51,315.92 658.82,319.90 659.77,324.00
             661.37,330.91 662.91,345.54 667.00,351.00
             667.00,351.00 681.49,322.00 681.49,322.00
             683.22,317.10 685.12,314.20 684.00,309.00 Z
           M 693.00,309.00
           C 693.00,309.00 692.00,314.00 692.00,314.00
             692.00,314.00 689.00,313.00 689.00,313.00
             686.81,320.36 688.33,321.84 693.00,328.00
             696.99,319.36 696.88,317.52 693.00,309.00 Z
           M 704.00,313.00
           C 704.00,313.00 702.00,313.00 702.00,313.00
             702.02,318.44 701.71,321.37 705.00,326.00
             705.00,326.00 704.00,313.00 704.00,313.00 Z
           M 651.00,314.00
           C 639.77,314.01 624.57,317.48 614.00,321.42
             610.04,322.90 603.18,324.14 602.53,329.02
             602.03,332.79 604.63,339.33 605.47,343.00
             605.47,343.00 607.66,363.00 607.66,363.00
             608.15,367.60 609.87,374.03 604.94,376.69
             601.64,378.47 597.55,377.71 594.00,378.21
             594.00,378.21 579.17,381.69 579.17,381.69
             571.73,383.37 565.04,387.14 558.00,389.98
             558.00,389.98 546.00,393.70 546.00,393.70
             546.00,393.70 536.00,397.39 536.00,397.39
             534.25,397.85 530.86,398.00 529.60,399.02
             528.61,399.82 528.33,400.83 528.25,402.06
             528.07,404.71 530.06,409.41 531.00,412.00
             532.16,415.21 532.97,424.34 535.43,425.13
             536.89,425.94 540.39,425.19 542.00,425.13
             548.07,423.90 554.24,421.50 559.91,419.13
             564.36,417.26 568.29,413.84 571.99,420.11
             573.77,423.12 574.77,432.29 575.16,436.00
             575.16,436.00 576.38,446.00 576.38,446.00
             576.38,446.00 577.75,451.00 577.75,451.00
             579.37,461.30 560.39,464.61 553.00,466.00
             553.00,471.42 553.41,477.66 554.32,483.00
             555.83,491.78 558.65,494.54 557.00,505.00
             566.05,509.19 589.39,509.35 600.00,510.09
             600.00,510.09 629.00,513.26 629.00,513.26
             629.00,513.26 658.00,519.00 658.00,519.00
             658.49,509.08 662.86,505.90 664.53,497.00
             666.04,488.99 666.99,468.58 667.00,460.00
             667.00,460.00 668.00,422.00 668.00,422.00
             668.00,422.00 664.00,378.00 664.00,378.00
             663.79,359.59 662.03,362.68 658.33,347.00
             658.33,347.00 654.33,325.00 654.33,325.00
             654.33,325.00 651.00,314.00 651.00,314.00 Z
           M 1459.00,322.00
           C 1452.03,322.00 1441.61,322.70 1434.99,324.78
             1434.99,324.78 1427.00,328.02 1427.00,328.02
             1422.26,329.45 1416.49,329.40 1412.02,331.98
             1407.40,334.64 1401.99,344.80 1401.00,350.00
             1401.00,350.00 1407.00,346.00 1407.00,346.00
             1404.89,355.45 1402.67,355.49 1398.06,362.28
             1398.06,362.28 1394.62,368.00 1394.62,368.00
             1394.62,368.00 1389.30,374.42 1389.30,374.42
             1389.30,374.42 1381.67,387.00 1381.67,387.00
             1380.57,389.12 1375.19,398.11 1375.18,399.46
             1375.17,400.67 1375.72,400.61 1376.00,401.00
             1376.00,401.00 1364.00,420.00 1364.00,420.00
             1370.17,416.94 1371.84,412.13 1376.04,407.00
             1376.04,407.00 1397.00,383.00 1397.00,383.00
             1397.00,383.00 1374.00,416.00 1374.00,416.00
             1374.00,416.00 1383.42,406.00 1383.42,406.00
             1383.42,406.00 1396.62,389.00 1396.62,389.00
             1396.62,389.00 1406.00,374.00 1406.00,374.00
             1406.00,374.00 1401.00,387.00 1401.00,387.00
             1405.94,384.23 1408.72,379.40 1412.45,375.28
             1412.45,375.28 1440.87,342.04 1440.87,342.04
             1446.94,335.29 1455.09,330.43 1459.00,322.00 Z
           M 687.00,323.00
           C 687.00,323.00 685.00,323.00 685.00,323.00
             685.00,323.00 673.07,343.00 673.07,343.00
             670.42,347.25 667.21,350.74 667.71,356.00
             667.71,356.00 669.83,367.00 669.83,367.00
             669.83,367.00 670.92,383.00 670.92,383.00
             672.49,392.59 669.58,397.36 674.04,401.00
             672.27,408.10 673.93,419.05 674.04,427.00
             674.04,427.00 674.04,441.00 674.04,441.00
             674.04,441.00 672.51,460.00 672.51,460.00
             673.02,468.06 672.97,472.00 671.00,480.00
             671.00,480.00 675.95,471.00 675.95,471.00
             675.95,471.00 681.85,449.00 681.85,449.00
             681.85,449.00 691.80,426.00 691.80,426.00
             691.80,426.00 694.46,413.00 694.46,413.00
             694.46,413.00 698.39,397.00 698.39,397.00
             698.39,397.00 701.00,378.00 701.00,378.00
             701.00,378.00 700.00,377.00 700.00,377.00
             695.11,378.90 694.63,381.69 691.95,386.00
             691.95,386.00 681.00,406.00 681.00,406.00
             681.21,400.13 688.43,387.02 691.22,381.00
             693.82,375.40 696.99,372.45 692.00,367.00
             692.00,367.00 675.00,399.00 675.00,399.00
             678.06,386.16 691.64,369.58 690.00,357.00
             697.51,354.10 694.50,344.77 693.00,339.00
             686.61,342.61 678.06,362.61 677.00,370.00
             677.00,370.00 675.60,368.25 675.60,368.25
             675.60,368.25 680.37,356.00 680.37,356.00
             680.37,356.00 689.60,333.00 689.60,333.00
             689.60,333.00 687.00,323.00 687.00,323.00 Z
           M 700.00,325.00
           C 700.00,325.00 698.00,325.00 698.00,325.00
             698.00,325.00 698.00,329.00 698.00,329.00
             692.77,332.45 694.79,337.80 698.00,342.00
             700.69,333.63 703.44,334.19 700.00,325.00 Z
           M 1442.00,325.00
           C 1442.00,325.00 1443.00,325.00 1443.00,325.00
             1443.00,325.00 1442.00,326.00 1442.00,326.00
             1442.00,326.00 1442.00,325.00 1442.00,325.00 Z
           M 598.00,367.00
           C 598.00,354.76 597.52,349.71 593.54,338.00
             592.81,335.84 592.06,330.18 590.41,329.07
             588.08,327.52 583.40,330.28 581.00,331.10
             581.00,331.10 571.00,333.75 571.00,333.75
             571.00,333.75 555.00,340.53 555.00,340.53
             555.00,340.53 516.00,356.00 516.00,356.00
             516.00,356.00 498.00,361.46 498.00,361.46
             498.00,361.46 473.00,373.76 473.00,373.76
             473.00,373.76 454.00,384.58 454.00,384.58
             451.79,385.75 446.24,388.53 445.05,390.61
             443.72,392.90 445.74,396.68 446.56,399.00
             448.77,405.33 449.40,404.73 451.20,409.00
             451.20,409.00 454.28,419.00 454.28,419.00
             454.28,419.00 457.87,432.00 457.87,432.00
             457.87,432.00 466.54,452.00 466.54,452.00
             466.54,452.00 469.46,461.00 469.46,461.00
             469.46,461.00 481.43,497.00 481.43,497.00
             481.43,497.00 485.00,509.00 485.00,509.00
             485.00,509.00 522.00,505.04 522.00,505.04
             522.00,505.04 548.00,505.04 548.00,505.04
             547.87,499.09 548.17,492.56 543.00,489.00
             546.89,486.31 545.21,484.07 544.46,480.00
             543.80,476.43 541.50,464.92 542.60,462.09
             545.12,455.64 555.99,456.13 565.88,451.00
             565.88,451.00 565.88,441.00 565.88,441.00
             565.88,441.00 564.00,429.00 564.00,429.00
             556.35,431.74 538.99,438.84 531.00,436.29
             528.68,435.54 526.62,434.06 525.56,431.82
             525.56,431.82 523.15,422.00 523.15,422.00
             521.31,415.62 518.09,409.69 518.00,403.00
             517.95,398.58 517.32,392.61 521.23,389.60
             524.11,387.37 535.14,387.67 539.91,385.87
             539.91,385.87 545.17,383.48 545.17,383.48
             547.66,382.69 549.79,382.99 555.00,380.91
             555.00,380.91 563.00,377.12 563.00,377.12
             563.00,377.12 570.00,374.87 570.00,374.87
             570.00,374.87 577.00,371.66 577.00,371.66
             580.37,370.42 594.38,367.33 598.00,367.00 Z
           M 1459.00,491.00
           C 1459.00,491.00 1460.51,484.00 1460.51,484.00
             1463.85,472.95 1470.08,463.11 1475.29,452.91
             1475.29,452.91 1487.89,427.00 1487.89,427.00
             1487.89,427.00 1492.07,421.00 1492.07,421.00
             1492.07,421.00 1498.94,405.00 1498.94,405.00
             1503.10,397.53 1508.25,390.67 1513.55,384.00
             1515.78,381.19 1519.65,376.81 1519.01,373.00
             1518.14,367.83 1509.07,361.32 1505.00,358.24
             1499.67,354.21 1497.20,350.66 1492.72,346.30
             1492.72,346.30 1480.83,335.78 1480.83,335.78
             1477.07,332.79 1470.93,328.19 1466.10,330.62
             1463.40,331.99 1461.05,335.52 1458.67,337.74
             1458.67,337.74 1448.18,348.00 1448.18,348.00
             1448.18,348.00 1436.98,360.98 1436.98,360.98
             1436.98,360.98 1417.91,383.00 1417.91,383.00
             1409.07,392.51 1386.82,416.52 1380.51,426.42
             1380.51,426.42 1372.65,444.00 1372.65,444.00
             1367.61,452.63 1364.27,455.36 1360.00,466.00
             1360.00,466.00 1396.00,470.76 1396.00,470.76
             1401.66,471.75 1405.45,474.61 1408.47,472.36
             1410.08,471.16 1412.70,466.38 1413.95,464.42
             1413.95,464.42 1424.23,447.00 1424.23,447.00
             1424.23,447.00 1428.12,439.26 1428.12,439.26
             1429.60,437.07 1435.20,430.30 1438.10,431.52
             1442.07,433.20 1438.16,440.70 1436.76,443.00
             1436.76,443.00 1418.00,477.00 1418.00,477.00
             1418.00,477.00 1441.00,483.86 1441.00,483.86
             1441.00,483.86 1459.00,491.00 1459.00,491.00 Z
           M 774.12,398.00
           C 765.15,393.04 765.76,387.04 764.93,378.00
             764.93,378.00 763.06,354.00 763.06,354.00
             763.06,354.00 763.06,346.00 763.06,346.00
             762.27,340.85 758.14,333.06 763.06,329.85
             764.35,329.40 765.63,329.26 766.82,329.85
             771.14,331.10 771.66,340.85 772.49,345.00
             772.49,345.00 774.12,373.00 774.12,373.00
             774.87,385.36 777.37,385.06 774.12,398.00 Z
           M 533.00,335.00 533.00,335.00 533.00,335.00 533.00,335.00
           M 705.00,341.00
           C 705.00,341.00 703.00,341.00 703.00,341.00
             700.62,346.15 698.18,351.21 704.00,355.00
             704.00,355.00 705.00,341.00 705.00,341.00 Z
           M 698.00,355.00
           C 694.60,359.47 694.05,362.70 698.00,367.00
             700.15,361.84 700.66,360.08 698.00,355.00 Z
           M 674.00,370.00
           C 675.85,373.75 674.67,374.77 671.00,376.00
             671.00,376.00 674.00,370.00 674.00,370.00 Z
           M 1456.10,401.00
           C 1455.98,398.94 1455.72,395.89 1456.10,394.00
             1456.10,394.00 1467.00,375.09 1467.00,375.09
             1468.52,372.23 1473.10,368.02 1476.16,371.60
             1478.68,374.55 1475.17,380.52 1473.57,383.17
             1468.71,391.18 1466.91,399.47 1456.10,401.00 Z
           M 1232.00,378.00
           C 1232.00,378.00 1231.00,378.00 1231.00,378.00
             1231.00,378.00 1232.00,379.00 1232.00,379.00
             1232.00,379.00 1232.00,378.00 1232.00,378.00 Z
           M 1233.00,381.00
           C 1227.43,386.13 1227.68,389.41 1225.68,396.00
             1225.68,396.00 1223.49,402.00 1223.49,402.00
             1223.49,402.00 1219.00,419.00 1219.00,419.00
             1224.39,416.02 1223.79,414.01 1226.25,409.09
             1226.25,409.09 1229.87,402.91 1229.87,402.91
             1231.92,398.12 1232.54,386.69 1233.00,381.00 Z
           M 695.00,400.00
           C 696.11,405.58 692.24,412.14 689.75,417.00
             688.33,419.78 687.53,422.76 684.00,422.00
             687.56,418.51 692.96,405.13 695.00,400.00 Z
           M 678.00,410.00
           C 678.00,410.00 681.00,407.00 681.00,407.00
             681.00,407.00 678.00,410.00 678.00,410.00 Z
           M 891.00,412.00 891.00,412.00 891.00,412.00 891.00,412.00
           M 677.00,412.00
           C 677.00,412.00 678.00,412.00 678.00,412.00
             678.00,412.00 677.00,413.00 677.00,413.00
             677.00,413.00 677.00,412.00 677.00,412.00 Z
           M 683.00,426.00
           C 683.00,426.00 685.00,426.00 685.00,426.00
             683.72,430.49 682.33,433.66 679.00,437.00
             679.00,437.00 683.00,426.00 683.00,426.00 Z
           M 896.00,480.00
           C 890.23,482.55 890.71,484.68 885.98,488.63
             881.61,492.28 869.24,500.63 867.02,505.00
             866.02,506.98 866.04,508.86 866.00,511.00
             866.00,511.00 865.00,539.00 865.00,539.00
             865.00,539.00 863.84,559.00 863.84,559.00
             863.32,563.86 862.06,567.35 864.65,572.00
             869.06,579.93 878.33,582.96 883.39,588.21
             883.39,588.21 890.09,596.00 890.09,596.00
             890.09,596.00 899.83,605.17 899.83,605.17
             899.83,605.17 908.00,613.96 908.00,613.96
             908.00,613.96 935.00,639.00 935.00,639.00
             935.00,639.00 954.34,658.09 954.34,658.09
             959.42,664.02 966.21,674.51 973.00,678.00
             973.00,678.00 970.17,666.00 970.17,666.00
             970.17,666.00 968.00,653.00 968.00,653.00
             968.00,653.00 968.00,652.00 968.00,652.00
             968.44,646.55 969.15,644.96 968.98,639.00
             968.71,629.08 963.34,626.74 957.42,620.00
             957.42,620.00 934.00,595.00 934.00,595.00
             934.00,595.00 920.00,581.00 920.00,581.00
             920.00,581.00 918.00,581.00 918.00,581.00
             918.00,581.00 907.00,600.00 907.00,600.00
             907.00,600.00 915.10,580.00 915.10,580.00
             915.01,576.03 908.06,569.38 905.00,567.00
             899.22,574.76 894.47,579.92 894.00,590.00
             892.98,589.37 891.94,589.22 891.57,587.71
             891.12,585.93 893.05,582.62 893.85,581.00
             896.60,575.46 898.09,570.93 903.00,567.00
             903.00,567.00 899.00,559.00 899.00,559.00
             899.00,559.00 897.00,559.00 897.00,559.00
             893.48,563.78 888.05,572.37 883.00,575.00
             883.00,575.00 893.00,558.00 893.00,558.00
             893.00,558.00 887.00,554.00 887.00,554.00
             883.55,559.45 881.14,565.64 880.00,572.00
             877.49,569.02 877.91,568.67 879.00,565.00
             879.00,565.00 876.00,564.00 876.00,564.00
             881.49,560.32 881.49,556.73 884.26,551.00
             889.83,539.48 898.75,527.20 895.00,514.00
             895.00,514.00 893.00,514.00 893.00,514.00
             893.00,514.00 880.00,535.00 880.00,535.00
             880.00,535.00 894.08,507.00 894.08,507.00
             894.08,507.00 896.00,480.00 896.00,480.00 Z
           M 969.00,628.00
           C 969.00,628.00 968.00,628.00 968.00,628.00
             968.00,628.00 969.00,629.00 969.00,629.00
             969.00,629.00 969.00,628.00 969.00,628.00 Z
           M 971.00,630.00
           C 970.61,633.88 973.17,636.15 975.59,638.99
             979.30,643.32 990.83,653.21 996.00,655.00
             992.70,639.54 982.97,637.88 971.00,630.00 Z
           M 971.00,636.00
           C 971.00,636.00 971.00,647.00 971.00,647.00
             975.89,643.88 974.61,639.61 971.00,636.00 Z
           M 979.00,645.00
           C 977.88,650.41 987.36,665.20 992.00,668.00
             992.00,668.00 990.00,659.00 990.00,659.00
             990.00,659.00 979.00,645.00 979.00,645.00 Z
           M 977.19,649.00
           C 974.20,652.97 975.84,662.46 977.19,667.00
             982.43,681.87 991.31,694.86 1001.00,707.00
             1001.00,707.00 1003.00,707.00 1003.00,707.00
             1004.92,699.56 1000.69,696.85 996.52,691.09
             988.94,680.60 987.86,676.34 982.00,666.00
             989.14,674.21 996.03,691.11 1005.00,696.00
             1003.44,690.22 998.78,684.58 1000.00,679.00
             1000.95,683.66 1001.76,685.62 1006.00,688.00
             1006.00,688.00 999.53,665.47 999.53,665.47
             999.53,665.47 992.00,660.00 992.00,660.00
             992.00,660.00 994.31,666.00 994.31,666.00
             994.91,667.40 996.50,670.56 996.51,671.94
             996.53,674.79 993.86,676.17 990.76,672.84
             986.83,668.61 978.49,654.54 977.19,649.00 Z
           M 640.00,777.00
           C 638.53,783.16 633.54,788.89 629.78,794.00
             629.78,794.00 617.40,814.00 617.40,814.00
             612.47,824.34 613.01,833.00 613.77,843.91
             613.77,843.91 614.29,853.00 614.29,853.00
             615.83,862.77 624.31,883.50 629.35,892.00
             631.20,895.11 632.59,896.32 634.63,899.00
             634.63,899.00 639.39,906.00 639.39,906.00
             643.93,911.76 653.11,918.82 659.00,923.61
             667.02,930.13 672.39,934.71 682.00,939.10
             685.93,940.90 695.80,944.42 700.00,945.33
             700.00,945.33 709.00,946.93 709.00,946.93
             709.00,946.93 724.00,951.91 724.00,951.91
             728.67,953.23 733.63,954.30 738.00,956.44
             742.76,958.76 746.45,961.90 752.00,961.92
             752.00,961.92 760.00,960.68 760.00,960.68
             760.00,960.68 767.00,960.68 767.00,960.68
             777.81,959.66 778.41,958.63 788.00,955.98
             788.00,955.98 797.00,953.84 797.00,953.84
             797.00,953.84 813.00,947.37 813.00,947.37
             813.00,947.37 831.00,940.68 831.00,940.68
             842.48,934.73 856.08,922.36 865.04,913.00
             869.55,908.29 877.80,899.75 880.68,893.99
             883.22,888.88 886.65,879.54 888.22,874.00
             888.22,874.00 890.11,866.00 890.11,866.00
             890.11,866.00 893.80,858.00 893.80,858.00
             893.80,858.00 899.37,842.00 899.37,842.00
             899.37,842.00 902.17,818.00 902.17,818.00
             903.05,809.32 904.11,809.28 904.00,799.00
             904.00,799.00 902.91,750.00 902.91,750.00
             902.91,750.00 901.08,734.00 901.08,734.00
             901.08,734.00 901.08,726.00 901.08,726.00
             901.08,726.00 899.86,715.00 899.86,715.00
             899.86,715.00 899.86,704.00 899.86,704.00
             899.86,704.00 899.86,691.00 899.86,691.00
             899.86,691.00 902.08,679.42 902.08,679.42
             902.70,673.31 901.82,668.27 909.00,666.00
             911.97,678.20 907.57,684.76 908.04,696.00
             908.04,696.00 908.96,705.00 908.96,705.00
             908.96,705.00 910.17,730.00 910.17,730.00
             911.16,740.38 911.95,738.67 912.00,751.00
             912.00,751.00 913.62,775.00 913.62,775.00
             913.62,775.00 913.62,782.00 913.62,782.00
             913.62,782.00 912.83,804.00 912.83,804.00
             912.30,809.33 911.49,809.62 911.45,816.00
             911.40,822.81 909.96,836.35 908.55,843.00
             908.55,843.00 897.36,876.00 897.36,876.00
             897.36,876.00 892.62,892.00 892.62,892.00
             892.62,892.00 888.63,900.00 888.63,900.00
             887.25,903.22 887.41,904.42 885.24,907.99
             881.40,914.27 868.03,925.01 862.04,930.27
             855.39,936.12 843.79,945.91 836.00,949.78
             836.00,949.78 807.00,960.34 807.00,960.34
             807.00,960.34 792.00,966.45 792.00,966.45
             792.00,966.45 772.00,969.16 772.00,969.16
             765.49,969.87 757.45,972.17 751.00,971.64
             743.41,971.01 735.04,966.37 728.00,963.61
             728.00,963.61 715.00,959.49 715.00,959.49
             715.00,959.49 703.00,957.15 703.00,957.15
             703.00,957.15 696.00,954.64 696.00,954.64
             686.44,951.34 676.64,948.62 668.00,943.05
             668.00,943.05 656.00,933.75 656.00,933.75
             647.87,927.60 643.17,923.21 635.85,916.32
             635.85,916.32 630.76,911.68 630.76,911.68
             628.69,909.34 626.67,905.70 624.95,903.00
             616.03,889.01 613.57,884.12 609.08,868.00
             606.39,858.32 605.02,859.19 605.00,848.00
             605.00,848.00 604.18,835.00 604.18,835.00
             603.90,831.01 604.79,828.77 605.55,825.00
             608.58,809.95 614.74,799.34 625.04,788.00
             630.01,782.53 632.31,777.89 640.00,777.00 Z
           M 981.00,680.00
           C 976.54,686.88 985.94,695.83 991.00,700.00
             991.00,700.00 981.00,680.00 981.00,680.00 Z
           M 1007.00,690.00
           C 1007.00,690.00 1009.00,694.00 1009.00,694.00
             1009.00,694.00 1007.00,690.00 1007.00,690.00 Z" />
</svg>
