0
SECTION
2
HEADER
9
$INSUNITS
70
4
9
$ACADVER
1
AC1014
9
$HANDSEED
5
FFFF
0
ENDSEC
0
SECTION
2
TABLES
0
TABLE
2
VPORT
5
8
100
AcDbSymbolTable
0
ENDTAB
0
TABLE
2
LTYPE
5
5
100
AcDbSymbolTable
0
LTYPE
5
14
100
AcDbSymbolTableRecord
100
AcDbLinetypeTableRecord
2
BYBLOCK
70
0
0
LTYPE
5
15
100
AcDbSymbolTableRecord
100
AcDbLinetypeTableRecord
2
BYLAYER
70
0
0
ENDTAB
0
TABLE
2
LAYER
5
2
100
AcDbSymbolTable
70
2
0
LAYER
5
50
100
AcDbSymbolTableRecord
100
AcDbLayerTableRecord
2
0
70
0
6
CONTINUOUS
0
ENDTAB
0
TABLE
2
STYLE
5
3
100
AcDbSymbolTable
70
1
0
STYLE
5
11
100
AcDbSymbolTableRecord
100
AcDbTextStyleTableRecord
2
STANDARD
70
0
0
ENDTAB
0
TABLE
2
VIEW
5
6
100
AcDbSymbolTable
70
0
0
ENDTAB
0
TABLE
2
UCS
5
7
100
AcDbSymbolTable
70
0
0
ENDTAB
0
TABLE
2
APPID
5
9
100
AcDbSymbolTable
70
2
0
APPID
5
12
100
AcDbSymbolTableRecord
100
AcDbRegAppTableRecord
2
ACAD
70
0
0
ENDTAB
0
TABLE
2
DIMSTYLE
5
A
100
AcDbSymbolTable
70
1
0
ENDTAB
0
TABLE
2
BLOCK_RECORD
5
1
100
AcDbSymbolTable
70
1
0
BLOCK_RECORD
5
1F
100
AcDbSymbolTableRecord
100
AcDbBlockTableRecord
2
*MODEL_SPACE
0
BLOCK_RECORD
5
1B
100
AcDbSymbolTableRecord
100
AcDbBlockTableRecord
2
*PAPER_SPACE
0
ENDTAB
0
ENDSEC
0
SECTION
2
BLOCKS
0
BLOCK
5
20
100
AcDbEntity
100
AcDbBlockBegin
2
*MODEL_SPACE
0
ENDBLK
5
21
100
AcDbEntity
100
AcDbBlockEnd
0
BLOCK
5
1C
100
AcDbEntity
100
AcDbBlockBegin
2
*PAPER_SPACE
0
ENDBLK
5
1D
100
AcDbEntity
100
AcDbBlockEnd
0
ENDSEC
0
SECTION
2
ENTITIES
0
LINE
5
100
100
AcDbEntity
8
0
100
AcDbLine
10
203.85740901075934
20
-74.014636790303314
30
0
11
185.01520901075924
21
-76.008056790303129
31
0
0
LINE
5
101
100
AcDbEntity
8
0
100
AcDbLine
10
17.397109010761614
20
-76.012216790303256
30
0
11
0.0972030107618993
21
-74.201316790303025
31
0
0
ARC
5
102
100
AcDbEntity
8
0
100
AcDbCircle
10
63.660989010760844
20
-10.838458790303793
30
0
40
2.0472452000001509
210
0
220
0
230
1
100
AcDbArc
50
263.98850000001192
51
265.12630000000547
0
LINE
5
103
100
AcDbEntity
8
0
100
AcDbLine
10
165.68160901075976
20
-82.919116790303065
30
0
11
127.13972901076008
21
-86.976416790302835
31
0
0
LINE
5
104
100
AcDbEntity
8
0
100
AcDbLine
10
237.54742901075875
20
-18.048076790303789
30
0
11
243.30902901075845
21
-72.76715679030309
31
0
0
ARC
5
105
100
AcDbEntity
8
0
100
AcDbCircle
10
0.31032501076179386
20
-72.165256790303005
30
0
40
2.047245200000261
210
0
220
0
230
1
100
AcDbArc
50
173.89000000000016
51
264.02399999999506
0
ARC
5
106
100
AcDbEntity
8
0
100
AcDbCircle
10
224.01182901075845
20
-74.789956790302952
30
0
40
2.0472451999996815
210
0
220
0
230
1
100
AcDbArc
50
261.7913000000172
51
275.9802000000148
0
LINE
5
107
100
AcDbEntity
8
0
100
AcDbLine
10
56.565329010760607
20
-76.008056790303073
30
0
11
37.679449010761047
21
-74.010216790303332
31
0
0
LINE
5
108
100
AcDbEntity
8
0
100
AcDbLine
10
197.81058901075914
20
-10.863548790304058
30
0
11
235.79762901075867
21
-16.235356790304092
31
0
0
LINE
5
109
100
AcDbEntity
8
0
100
AcDbLine
10
37.254089010761255
20
-74.009436790302701
30
0
11
17.820129010761757
21
-76.012476790302955
31
0
0
ARC
5
110
100
AcDbEntity
8
0
100
AcDbCircle
10
165.46710901075969
20
-80.883056790303044
30
0
40
2.0472452000000532
210
-0
220
0
230
1
100
AcDbArc
50
276.0095000000025
51
290.00869999999441
0
ARC
5
111
100
AcDbEntity
8
0
100
AcDbCircle
10
37.463909010761355
20
-76.0460167903029
30
0
40
2.0472425999998616
210
0
220
-0
230
1
100
AcDbArc
50
83.961300000000364
51
95.884599999993924
0
LINE
5
112
100
AcDbEntity
8
0
100
AcDbLine
10
111.56104901076019
20
-16.970116790303713
30
0
11
130.01948901076005
21
-16.970116790303713
31
0
0
ARC
5
113
100
AcDbEntity
8
0
100
AcDbCircle
10
114.65244901076002
20
-84.940356790302786
30
0
40
2.0472452000000669
210
0
220
0
230
1
100
AcDbArc
50
263.99010000000555
51
270
0
LINE
5
114
100
AcDbEntity
8
0
100
AcDbLine
10
241.48642901075863
20
-75.01771679030287
30
0
11
224.22528901075856
21
-76.826016790303001
31
0
0
LINE
5
115
100
AcDbEntity
8
0
100
AcDbLine
10
114.43794901076029
20
-86.976416790302835
30
0
11
75.898929010760753
21
-82.919116790303036
31
0
0
LINE
5
116
100
AcDbEntity
8
0
100
AcDbLine
10
126.92522901076035
20
-86.987596790302675
30
0
11
114.65244901076002
21
-86.987596790302675
31
0
0
ARC
5
117
100
AcDbEntity
8
0
100
AcDbCircle
10
6.1648490107616372
20
-17.477636790304043
30
0
40
2.0472452000001233
210
0
220
0
230
1
100
AcDbArc
50
96.909899999996
51
173.88999999998902
0
ARC
5
118
100
AcDbEntity
8
0
100
AcDbCircle
10
126.92522901076035
20
-84.940356790302786
30
0
40
2.0472452000003116
210
-0
220
0
230
1
100
AcDbArc
50
270
51
276.00949999999295
0
LINE
5
119
100
AcDbEntity
8
0
100
AcDbLine
10
5.9183690107617437
20
-15.445216790303693
30
0
11
43.440789010761158
21
-10.897998790303838
31
0
0
LINE
5
120
100
AcDbEntity
8
0
100
AcDbLine
10
111.38710901076004
20
-16.96257679030392
30
0
11
63.487049010761041
21
-12.878288790303909
31
0
0
ARC
5
121
100
AcDbEntity
8
0
100
AcDbCircle
10
44.056469010761496
20
-15.978996790303928
30
0
40
5.1181000000000987
210
0
220
-0
230
1
100
AcDbArc
50
83.988500000003327
51
96.909900000001031
0
LINE
5
122
100
AcDbEntity
8
0
100
AcDbLine
10
197.31060901075935
20
-10.854526790303929
30
0
11
178.03134901075941
21
-12.874518790303853
31
0
0
ARC
5
123
100
AcDbEntity
8
0
100
AcDbCircle
10
17.610309010761668
20
-73.976156790302838
30
0
40
2.047242600000621
210
0
220
0
230
1
100
AcDbArc
50
264.02399999999511
51
275.88459999999145
0
ARC
5
124
100
AcDbEntity
8
0
100
AcDbCircle
10
235.51162901075878
20
-18.262576790303893
30
0
40
2.0472451999998889
210
0
220
-0
230
1
100
AcDbArc
50
6.0119299999979727
51
81.951000000004015
0
ARC
5
125
100
AcDbEntity
8
0
100
AcDbCircle
10
111.56104901076019
20
-14.922876790303832
30
0
40
2.0472451999998573
210
0
220
0
230
1
100
AcDbArc
50
265.12629999999513
51
270
0
ARC
5
126
100
AcDbEntity
8
0
100
AcDbCircle
10
56.350049010760998
20
-78.04385679030301
30
0
40
2.0472451999998595
210
0
220
-0
230
1
100
AcDbArc
50
69.991300000005879
51
83.961299999996044
0
ARC
5
127
100
AcDbEntity
8
0
100
AcDbCircle
10
241.27322901075857
20
-72.981656790303205
30
0
40
2.0472452000000536
210
-0
220
0
230
1
100
AcDbArc
50
-84.019799999993879
51
6.0119300000087241
0
ARC
5
128
100
AcDbEntity
8
0
100
AcDbCircle
10
177.81814901075938
20
-10.83843279030388
30
0
40
2.0472451999999257
210
-0
220
0
230
1
100
AcDbArc
50
274.88400000000422
51
275.98140000000399
0
LINE
5
129
100
AcDbEntity
8
0
100
AcDbLine
10
184.53004901075931
20
-76.120116790302859
30
0
11
166.1678090107593
21
-82.806796790303267
31
0
0
LINE
5
130
100
AcDbEntity
8
0
100
AcDbLine
10
63.446749010760811
20
-12.874440790304007
30
0
11
44.59258901076096
21
-10.888976790303708
31
0
0
LINE
5
131
100
AcDbEntity
8
0
100
AcDbLine
10
75.412729010760501
20
-82.806796790303224
30
0
11
57.050489010761247
21
-76.120116790303172
31
0
0
ARC
5
132
100
AcDbEntity
8
0
100
AcDbCircle
10
130.01948901076005
20
-14.922876790303832
30
0
40
2.0472451999999564
210
-0
220
0
230
1
100
AcDbArc
50
270
51
274.88400000000502
0
ARC
5
133
100
AcDbEntity
8
0
100
AcDbCircle
10
185.23048901075921
20
-78.043856790303067
30
0
40
2.0472451999998253
210
0
220
0
230
1
100
AcDbArc
50
96.039199999993514
51
110.00900000000313
0
ARC
5
134
100
AcDbEntity
8
0
100
AcDbCircle
10
204.07294901075903
20
-76.05043679030328
30
0
40
2.0472425999999571
210
0
220
-0
230
1
100
AcDbArc
50
81.791300000003872
51
96.039199999996967
0
ARC
5
135
100
AcDbEntity
8
0
100
AcDbCircle
10
76.113169010760785
20
-80.883056790303002
30
0
40
2.0472425999998225
210
0
220
0
230
1
100
AcDbArc
50
249.99099999999765
51
263.99010000000578
0
ARC
5
136
100
AcDbEntity
8
0
100
AcDbCircle
10
197.52406901075912
20
-12.890638790303832
30
0
40
2.0472452000000114
210
0
220
-0
230
1
100
AcDbArc
50
81.951000000004015
51
95.981400000004044
0
LINE
5
137
100
AcDbEntity
8
0
100
AcDbLine
10
177.99234901075926
20
-12.878236790304065
30
0
11
130.19368901075993
21
-16.96257679030392
31
0
0
LINE
5
138
100
AcDbEntity
8
0
100
AcDbLine
10
223.7195890107588
20
-76.816136790302807
30
0
11
204.36518901075868
21
-74.024256790303042
31
0
0
LINE
5
139
100
AcDbEntity
8
0
100
AcDbLine
10
-1.7252669892383077
20
-71.947116790302857
30
0
11
4.1290490107616851
21
-17.259756790303982
31
0
0
LINE
5
140
100
AcDbEntity
8
0
100
AcDbLine
10
224.98333962560599
20
-71.67018809999999
30
0
11
237.85682452560596
21
-69.860937800000016
31
0
0
ARC
5
141
100
AcDbEntity
8
0
100
AcDbCircle
10
198.732400725606
20
-65.235995500000001
30
0
40
0.49999999999999933
210
0
220
0
230
1
100
AcDbArc
50
-82.000000000002331
51
8.0000000000008491
0
ARC
5
142
100
AcDbEntity
8
0
100
AcDbCircle
10
237.78723792560598
20
-69.365803799999995
30
0
40
0.49999999999999933
210
0
220
0
230
1
100
AcDbArc
50
-82.000000000002586
51
7.9999999999992042
0
LINE
5
143
100
AcDbEntity
8
0
100
AcDbLine
10
236.47312162560604
20
-56.422732300000007
30
0
11
238.28237192560596
21
-69.296217200000001
31
0
0
ARC
5
144
100
AcDbEntity
8
0
100
AcDbCircle
10
216.450569025606
20
-54.427414799999994
30
0
40
0.50000000000000056
210
0
220
-0
230
1
100
AcDbArc
50
8.0000000000000266
51
97.999999999997556
0
LINE
5
145
100
AcDbEntity
8
0
100
AcDbLine
10
205.45592102560596
20
-69.605283999999997
30
0
11
218.32940592560595
21
-67.79603370000001
31
0
0
LINE
5
146
100
AcDbEntity
8
0
100
AcDbLine
10
222.60936872560598
20
-58.371155799999997
30
0
11
224.41861902560601
21
-71.244640700000005
31
0
0
LINE
5
147
100
AcDbEntity
8
0
100
AcDbLine
10
197.41828442560598
20
-52.292923999999999
30
0
11
199.22753472560598
21
-65.166408900000022
31
0
0
ARC
5
148
100
AcDbEntity
8
0
100
AcDbCircle
10
215.60857172560594
20
-48.436292899999998
30
0
40
0.49999999999999933
210
0
220
0
230
1
100
AcDbArc
50
-81.999999999999233
51
7.9999999999996154
0
ARC
5
149
100
AcDbEntity
8
0
100
AcDbCircle
10
196.92315042560597
20
-52.362510600000007
30
0
40
0.50000000000000056
210
0
220
-0
230
1
100
AcDbArc
50
8.0000000000000266
51
97.999999999997556
0
LINE
5
150
100
AcDbEntity
8
0
100
AcDbLine
10
203.081950125606
20
-56.306251700000004
30
0
11
204.89120042560597
21
-69.179736599999998
31
0
0
ARC
5
151
100
AcDbEntity
8
0
100
AcDbCircle
10
222.26250552560597
20
-52.310447300000007
30
0
40
0.50000000000000056
210
0
220
0
230
1
100
AcDbArc
50
187.9999999999996
51
277.99999999999756
0
LINE
5
152
100
AcDbEntity
8
0
100
AcDbLine
10
223.034916125606
20
-57.806435200000017
30
0
11
235.908401025606
21
-55.997184900000001
31
0
0
ARC
5
153
100
AcDbEntity
8
0
100
AcDbCircle
10
218.25981932560603
20
-67.300899700000002
30
0
40
0.49999999999999933
210
0
220
0
230
1
100
AcDbArc
50
-82.000000000002586
51
7.9999999999992042
0
ARC
5
154
100
AcDbEntity
8
0
100
AcDbCircle
10
203.57708412560601
20
-56.23666510000001
30
0
40
0.49999999999999933
210
0
220
0
230
1
100
AcDbArc
50
97.999999999997641
51
188.00000000000085
0
ARC
5
155
100
AcDbEntity
8
0
100
AcDbCircle
10
202.73508682560595
20
-50.2455432
30
0
40
0.50000000000000056
210
0
220
0
230
1
100
AcDbArc
50
188
51
278.00000000000074
0
ARC
5
156
100
AcDbEntity
8
0
100
AcDbCircle
10
235.13599042560597
20
-50.501196999999998
30
0
40
0.49999999999999933
210
0
220
0
230
1
100
AcDbArc
50
-82.00000000000243
51
8.0000000000000266
0
ARC
5
157
100
AcDbEntity
8
0
100
AcDbCircle
10
196.08115312560599
20
-46.371388800000005
30
0
40
0.49999999999999933
210
0
220
0
230
1
100
AcDbArc
50
-82.000000000002331
51
8.0000000000008491
0
ARC
5
158
100
AcDbEntity
8
0
100
AcDbCircle
10
205.38633442560598
20
-69.110150000000004
30
0
40
0.50000000000000056
210
0
220
0
230
1
100
AcDbArc
50
188.00000000000085
51
278.00000000000063
0
ARC
5
159
100
AcDbEntity
8
0
100
AcDbCircle
10
235.977987625606
20
-56.492318900000001
30
0
40
0.50000000000000056
210
0
220
-0
230
1
100
AcDbArc
50
8.0000000000000266
51
97.999999999997556
0
ARC
5
160
100
AcDbEntity
8
0
100
AcDbCircle
10
224.91375302560598
20
-71.175054099999997
30
0
40
0.50000000000000056
210
0
220
0
230
1
100
AcDbArc
50
188.00000000000085
51
277.99999999999744
0
LINE
5
161
100
AcDbEntity
8
0
100
AcDbLine
10
216.94570302560601
20
-54.3578282
30
0
11
218.75495332560598
21
-67.231313099999994
31
0
0
LINE
5
162
100
AcDbEntity
8
0
100
AcDbLine
10
202.80467342560598
20
-50.740677200000015
30
0
11
215.67815832560598
21
-48.931426900000005
31
0
0
ARC
5
163
100
AcDbEntity
8
0
100
AcDbCircle
10
223.10450272560598
20
-58.301569200000003
30
0
40
0.49999999999999933
210
0
220
0
230
1
100
AcDbArc
50
98.000000000000753
51
188
0
LINE
5
164
100
AcDbEntity
8
0
100
AcDbLine
10
203.50749752560597
20
-55.741531100000003
30
0
11
216.38098242560596
21
-53.932280800000001
31
0
0
LINE
5
165
100
AcDbEntity
8
0
100
AcDbLine
10
222.33209212560604
20
-52.8055813
30
0
11
235.20557702560595
21
-50.996330999999998
31
0
0
LINE
5
166
100
AcDbEntity
8
0
100
AcDbLine
10
162.701489125606
20
-42.744140100000003
30
0
11
164.51073942560598
21
-55.617625000000004
31
0
0
LINE
5
167
100
AcDbEntity
8
0
100
AcDbLine
10
43.522293325605972
20
-52.420456999999999
30
0
11
41.713043025605984
21
-65.293941899999993
31
0
0
ARC
5
168
100
AcDbEntity
8
0
100
AcDbCircle
10
65.712467025605974
20
-35.001714300000003
30
0
40
0.50000000000000056
210
0
220
0
230
1
100
AcDbArc
50
171.99999999999918
51
261.99999999999909
0
ARC
5
169
100
AcDbEntity
8
0
100
AcDbCircle
10
37.363493625605969
20
-56.364197999999995
30
0
40
0.50000000000000056
210
0
220
0
230
1
100
AcDbArc
50
-7.9999999999998588
51
81.999999999999233
0
ARC
5
170
100
AcDbEntity
8
0
100
AcDbCircle
10
55.081661925605978
20
-67.172778799999989
30
0
40
0.50000000000000056
210
0
220
0
230
1
100
AcDbArc
50
262.00000000000011
51
351.99999999999926
0
ARC
5
171
100
AcDbEntity
8
0
100
AcDbCircle
10
22.680758425605973
20
-67.428432599999994
30
0
40
0.50000000000000056
210
0
220
0
230
1
100
AcDbArc
50
172.00000000000091
51
262.00000000000011
0
ARC
5
172
100
AcDbEntity
8
0
100
AcDbCircle
10
63.061219425605977
20
-53.866320999999999
30
0
40
0.50000000000000056
210
0
220
0
230
1
100
AcDbArc
50
172.00000000000006
51
262.00000000000006
0
LINE
5
173
100
AcDbEntity
8
0
100
AcDbLine
10
18.331209025605972
20
-58.498688700000002
30
0
11
16.521958725605973
21
-71.372173599999996
31
0
0
ARC
5
174
100
AcDbEntity
8
0
100
AcDbCircle
10
198.27458902560596
20
-18.5074516
30
0
40
0.49999999999999933
210
0
220
0
230
1
100
AcDbArc
50
97.999999999997556
51
188
0
LINE
5
175
100
AcDbEntity
8
0
100
AcDbLine
10
4.4674561256059713
20
-56.550265199999998
30
0
11
2.6582058256059717
21
-69.423750099999992
31
0
0
LINE
5
176
100
AcDbEntity
8
0
100
AcDbLine
10
5.7350008256059715
20
-51.123864000000012
30
0
11
18.60848572560597
21
-52.933114299999993
31
0
0
ARC
5
177
100
AcDbEntity
8
0
100
AcDbCircle
10
17.836075025605968
20
-58.429102100000009
30
0
40
0.50000000000000056
210
0
220
0
230
1
100
AcDbArc
50
-8.0000000000007745
51
81.999999999999943
0
LINE
5
178
100
AcDbEntity
8
0
100
AcDbLine
10
217.30687362560602
20
-20.6419423
30
0
11
219.11612392560596
21
-33.515427199999998
31
0
0
LINE
5
179
100
AcDbEntity
8
0
100
AcDbLine
10
7.1187037256059718
20
-37.685658500000002
30
0
11
5.3094534256059713
21
-50.559143400000011
31
0
0
LINE
5
180
100
AcDbEntity
8
0
100
AcDbLine
10
3.0837532256059714
20
-69.988470700000008
30
0
11
15.957238125605972
21
-71.797720999999996
31
0
0
ARC
5
181
100
AcDbEntity
8
0
100
AcDbCircle
10
3.1533398256059715
20
-69.493336700000015
30
0
40
0.5
210
0
220
0
230
1
100
AcDbArc
50
171.99999999999923
51
261.99999999999983
0
LINE
5
182
100
AcDbEntity
8
0
100
AcDbLine
10
198.20500242560598
20
-18.012317599999999
30
0
11
211.07848732560598
21
-16.203067300000001
31
0
0
ARC
5
183
100
AcDbEntity
8
0
100
AcDbCircle
10
16.026824725605977
20
-71.302587000000003
30
0
40
0.50000000000000022
210
0
220
0
230
1
100
AcDbArc
50
262
51
351.99999999999926
0
ARC
5
184
100
AcDbEntity
8
0
100
AcDbCircle
10
21.329319825605971
20
-33.573373600000011
30
0
40
0.50000000000000056
210
0
220
0
230
1
100
AcDbArc
50
261.99999999999955
51
352.00000000000011
0
LINE
5
185
100
AcDbEntity
8
0
100
AcDbLine
10
167.72670762560597
20
-74.907779099999999
30
0
11
180.60019252560596
21
-73.098528799999997
31
0
0
LINE
5
186
100
AcDbEntity
8
0
100
AcDbLine
10
81.193427625605977
20
-61.728854300000002
30
0
11
94.066912525605971
21
-63.538104599999997
31
0
0
ARC
5
187
100
AcDbEntity
8
0
100
AcDbCircle
10
183.20766822560597
20
-48.1806391
30
0
40
0.50000000000000056
210
0
220
0
230
1
100
AcDbArc
50
188
51
277.99999999999756
0
LINE
5
188
100
AcDbEntity
8
0
100
AcDbLine
10
42.138590425605983
20
-65.858662499999994
30
0
11
55.012075325605977
21
-67.667912799999996
31
0
0
ARC
5
189
100
AcDbEntity
8
0
100
AcDbCircle
10
80.395202225605971
20
-23.937479700000001
30
0
40
0.50000000000000056
210
0
220
0
230
1
100
AcDbArc
50
-8.000000000000469
51
82.000000000000867
0
ARC
5
190
100
AcDbEntity
8
0
100
AcDbCircle
10
175.22811082560597
20
-34.874181400000012
30
0
40
0.49999999999999933
210
0
220
0
230
1
100
AcDbArc
50
-81.999999999999119
51
8.0000000000003944
0
ARC
5
191
100
AcDbEntity
8
0
100
AcDbCircle
10
144.15283102560599
20
-44.050830900000008
30
0
40
0.50000000000000056
210
0
220
0
230
1
100
AcDbArc
50
188
51
277.99999999999756
0
LINE
5
192
100
AcDbEntity
8
0
100
AcDbLine
10
44.087013925605973
20
-51.9949096
30
0
11
56.960498825605974
21
-53.804159899999995
31
0
0
LINE
5
193
100
AcDbEntity
8
0
100
AcDbLine
10
178.25203642560598
20
-16.512134099999997
30
0
11
180.06128672560595
21
-29.385619000000002
31
0
0
LINE
5
194
100
AcDbEntity
8
0
100
AcDbLine
10
80.890336225605978
20
-24.007066300000002
30
0
11
79.081085925605976
21
-36.880551200000006
31
0
0
LINE
5
195
100
AcDbEntity
8
0
100
AcDbLine
10
173.91399452560594
20
-21.931109900000003
30
0
11
175.72324482560595
21
-34.804594799999997
31
0
0
LINE
5
196
100
AcDbEntity
8
0
100
AcDbLine
10
144.92524172560599
20
-49.54681870000001
30
0
11
157.79872662560598
21
-47.737568400000001
31
0
0
ARC
5
197
100
AcDbEntity
8
0
100
AcDbCircle
10
78.585951925605968
20
-36.810964599999998
30
0
40
0.50000000000000056
210
0
220
0
230
1
100
AcDbArc
50
261.9999999999992
51
351.99999999999994
0
ARC
5
198
100
AcDbEntity
8
0
100
AcDbCircle
10
142.34358072560599
20
-31.177346000000004
30
0
40
0.49999999999999933
210
0
220
0
230
1
100
AcDbArc
50
98.000000000000753
51
187.99999999999997
0
ARC
5
199
100
AcDbEntity
8
0
100
AcDbCircle
10
85.723512125605964
20
-29.495628700000005
30
0
40
0.49999999999999933
210
0
220
-0
230
1
100
AcDbArc
50
82.000000000000867
51
171.99999999999977
0
LINE
5
200
100
AcDbEntity
8
0
100
AcDbLine
10
144.222417625606
20
-44.545964899999994
30
0
11
157.09590252560594
21
-42.736714599999999
31
0
0
LINE
5
201
100
AcDbEntity
8
0
100
AcDbLine
10
85.793098725605986
20
-29.000494699999997
30
0
11
98.666583625605981
21
-30.809744999999999
31
0
0
LINE
5
202
100
AcDbEntity
8
0
100
AcDbLine
10
155.71219962560602
20
-29.298509100000004
30
0
11
157.52144992560599
21
-42.171993999999998
31
0
0
LINE
5
203
100
AcDbEntity
8
0
100
AcDbLine
10
46.173540925605977
20
-33.555850299999996
30
0
11
44.364290625605975
21
-46.429335200000004
31
0
0
ARC
5
204
100
AcDbEntity
8
0
100
AcDbCircle
10
180.55642072560599
20
-29.316032399999997
30
0
40
0.50000000000000056
210
0
220
0
230
1
100
AcDbArc
50
187.99999999999997
51
277.99999999999756
0
ARC
5
205
100
AcDbEntity
8
0
100
AcDbCircle
10
181.39841792560594
20
-35.307154199999999
30
0
40
0.49999999999999933
210
0
220
0
230
1
100
AcDbArc
50
97.999999999997556
51
188
0
LINE
5
206
100
AcDbEntity
8
0
100
AcDbLine
10
160.05024162560599
20
-23.879533399999996
30
0
11
161.85949192560597
21
-36.753018299999994
31
0
0
LINE
5
207
100
AcDbEntity
8
0
100
AcDbLine
10
142.27399412560598
20
-30.682212
30
0
11
155.14747902560597
21
-28.872961699999998
31
0
0
LINE
5
208
100
AcDbEntity
8
0
100
AcDbLine
10
163.12703652560597
20
-42.179419500000002
30
0
11
176.00052142560597
21
-40.370169200000007
31
0
0
LINE
5
209
100
AcDbEntity
8
0
100
AcDbLine
10
180.626007325606
20
-29.811166399999998
30
0
11
193.49949222560599
21
-28.001916100000006
31
0
0
ARC
5
210
100
AcDbEntity
8
0
100
AcDbCircle
10
162.35462592560597
20
-36.683431700000007
30
0
40
0.50000000000000056
210
0
220
0
230
1
100
AcDbArc
50
188
51
278.00000000000074
0
LINE
5
211
100
AcDbEntity
8
0
100
AcDbLine
10
185.92850242560598
20
-67.540379799999997
30
0
11
198.80198732560598
21
-65.731129500000009
31
0
0
LINE
5
212
100
AcDbEntity
8
0
100
AcDbLine
10
83.844675225605968
20
-42.864247600000013
30
0
11
96.718160125605976
21
-44.673497900000001
31
0
0
ARC
5
213
100
AcDbEntity
8
0
100
AcDbCircle
10
42.66598872560597
20
-18.634984600000003
30
0
40
0.50000000000000022
210
0
220
0
230
1
100
AcDbArc
50
-7.9999999999999094
51
81.999999999999233
0
LINE
5
214
100
AcDbEntity
8
0
100
AcDbLine
10
78.542180025605973
20
-80.593461000000005
30
0
11
91.415664925605981
21
-82.402711300000021
31
0
0
ARC
5
215
100
AcDbEntity
8
0
100
AcDbCircle
10
29.792503825605969
20
-16.825734300000001
30
0
40
0.50000000000000056
210
0
220
-0
230
1
100
AcDbArc
50
82.000000000000043
51
172.00000000000006
0
ARC
5
216
100
AcDbEntity
8
0
100
AcDbCircle
10
94.13649912560598
20
-63.042970600000004
30
0
40
0.49999999999999933
210
0
220
0
230
1
100
AcDbArc
50
261.9999999999992
51
351.99999999999915
0
LINE
5
217
100
AcDbEntity
8
0
100
AcDbLine
10
83.141851125605967
20
-47.8651014
30
0
11
96.01533602560599
21
-49.67435170000001
31
0
0
LINE
5
218
100
AcDbEntity
8
0
100
AcDbLine
10
10.334671825605973
20
-18.3955044
30
0
11
23.208156725605971
21
-20.204754700000002
31
0
0
LINE
5
219
100
AcDbEntity
8
0
100
AcDbLine
10
179.21648962560599
20
-59.660323300000009
30
0
11
181.02573992560596
21
-72.53380820000001
31
0
0
LINE
5
220
100
AcDbEntity
8
0
100
AcDbLine
10
99.09213102560598
20
-31.374465600000004
30
0
11
97.282880725605992
21
-44.247950500000002
31
0
0
ARC
5
221
100
AcDbEntity
8
0
100
AcDbCircle
10
167.65712102560599
20
-74.412645099999992
30
0
40
0.50000000000000056
210
0
220
0
230
1
100
AcDbArc
50
188.00000000000085
51
278.00000000000063
0
LINE
5
222
100
AcDbEntity
8
0
100
AcDbLine
10
85.228378125605971
20
-29.426042100000007
30
0
11
83.419127825605969
21
-42.299527000000012
31
0
0
ARC
5
223
100
AcDbEntity
8
0
100
AcDbCircle
10
165.84787072560599
20
-61.539160200000005
30
0
40
0.49999999999999933
210
0
220
0
230
1
100
AcDbArc
50
98.000000000000753
51
187.9999999999996
0
LINE
5
224
100
AcDbEntity
8
0
100
AcDbLine
10
165.07546002560593
20
-56.043172400000003
30
0
11
177.94894492560599
21
-54.233922100000001
31
0
0
LINE
5
225
100
AcDbEntity
8
0
100
AcDbLine
10
141.25396152560597
20
-66.895346900000007
30
0
11
128.38047662560598
21
-68.704597200000009
31
0
0
LINE
5
226
100
AcDbEntity
8
0
100
AcDbLine
10
147.57648932560599
20
-68.411425400000013
30
0
11
160.44997422560598
21
-66.602175100000011
31
0
0
ARC
5
227
100
AcDbEntity
8
0
100
AcDbCircle
10
159.67756352560599
20
-61.106187300000002
30
0
40
0.49999999999999933
210
0
220
0
230
1
100
AcDbArc
50
-81.999999999999375
51
8.0000000000000266
0
ARC
5
228
100
AcDbEntity
8
0
100
AcDbCircle
10
130.25931352560599
20
-82.073216099999996
30
0
40
0.49999999999999933
210
0
220
0
230
1
100
AcDbArc
50
187.99999999999878
51
277.99999999999767
0
ARC
5
229
100
AcDbEntity
8
0
100
AcDbCircle
10
143.13279842560598
20
-80.263965799999994
30
0
40
0.49999999999999933
210
0
220
0
230
1
100
AcDbArc
50
-82.000000000002586
51
7.9999999999976037
0
LINE
5
230
100
AcDbEntity
8
0
100
AcDbLine
10
183.55453152560597
20
-54.241347500000003
30
0
11
185.36378182560597
21
-67.114832399999997
31
0
0
LINE
5
231
100
AcDbEntity
8
0
100
AcDbLine
10
147.15094192560599
20
-68.976146
30
0
11
148.96019222560599
21
-81.849630899999994
31
0
0
LINE
5
232
100
AcDbEntity
8
0
100
AcDbLine
10
165.35273672560595
20
-61.608746799999999
30
0
11
167.16198702560592
21
-74.4822317
31
0
0
LINE
5
233
100
AcDbEntity
8
0
100
AcDbLine
10
127.95492922560598
20
-69.26931780000001
30
0
11
129.76417952560598
21
-82.142802700000018
31
0
0
LINE
5
234
100
AcDbEntity
8
0
100
AcDbLine
10
67.026583325605969
20
-22.058642800000001
30
0
11
65.217333025605967
21
-34.932127700000002
31
0
0
ARC
5
235
100
AcDbEntity
8
0
100
AcDbCircle
10
128.45006322560599
20
-69.199731200000002
30
0
40
0.49999999999999933
210
0
220
0
230
1
100
AcDbArc
50
98.000000000000881
51
188.00000000000063
0
LINE
5
236
100
AcDbEntity
8
0
100
AcDbLine
10
146.873665225606
20
-63.410571600000011
30
0
11
159.747150125606
21
-61.601321300000009
31
0
0
LINE
5
237
100
AcDbEntity
8
0
100
AcDbLine
10
165.77828412560598
20
-61.044026200000005
30
0
11
178.65176902560594
21
-59.234775900000002
31
0
0
LINE
5
238
100
AcDbEntity
8
0
100
AcDbLine
10
49.389509025605982
20
-14.265696200000002
30
0
11
62.262993925605983
21
-16.074946499999999
31
0
0
ARC
5
239
100
AcDbEntity
8
0
100
AcDbCircle
10
178.72135562560598
20
-59.729909899999996
30
0
40
0.50000000000000056
210
0
220
-0
230
1
100
AcDbArc
50
8.0000000000000266
51
98.000000000000753
0
ARC
5
240
100
AcDbEntity
8
0
100
AcDbCircle
10
180.53060592560598
20
-72.603394800000004
30
0
40
0.49999999999999933
210
0
220
0
230
1
100
AcDbArc
50
-81.999999999999375
51
7.9999999999992042
0
LINE
5
241
100
AcDbEntity
8
0
100
AcDbLine
10
61.724088125605974
20
-59.7878562
30
0
11
59.914837825605964
21
-72.661341100000001
31
0
0
ARC
5
242
100
AcDbEntity
8
0
100
AcDbCircle
10
141.32354812560598
20
-67.3904809
30
0
40
0.50000000000000056
210
0
220
-0
230
1
100
AcDbArc
50
7.9999999999992042
51
98.000000000000881
0
ARC
5
243
100
AcDbEntity
8
0
100
AcDbCircle
10
165.00587342560596
20
-55.548038399999996
30
0
40
0.50000000000000056
210
0
220
0
230
1
100
AcDbArc
50
188.00000000000085
51
278.00000000000063
0
LINE
5
244
100
AcDbEntity
8
0
100
AcDbLine
10
143.20238502560596
20
-80.759099800000001
30
0
11
130.32890012560597
21
-82.568350100000004
31
0
0
ARC
5
245
100
AcDbEntity
8
0
100
AcDbCircle
10
64.870469725605972
20
-40.992836100000005
30
0
40
0.50000000000000056
210
0
220
-0
230
1
100
AcDbArc
50
81.999999999999233
51
172
0
ARC
5
246
100
AcDbEntity
8
0
100
AcDbCircle
10
184.04966552560597
20
-54.171760899999995
30
0
40
0.49999999999999933
210
0
220
0
230
1
100
AcDbArc
50
97.999999999997641
51
188.00000000000085
0
ARC
5
247
100
AcDbEntity
8
0
100
AcDbCircle
10
146.804078625606
20
-62.915437600000004
30
0
40
0.50000000000000056
210
0
220
0
230
1
100
AcDbArc
50
188.00000000000085
51
278.00000000000074
0
ARC
5
248
100
AcDbEntity
8
0
100
AcDbCircle
10
162.32881112560597
20
-79.970794000000012
30
0
40
0.49999999999999933
210
0
220
0
230
1
100
AcDbArc
50
-81.999999999999119
51
8.0000000000003944
0
LINE
5
249
100
AcDbEntity
8
0
100
AcDbLine
10
75.587841025605982
20
-61.736279700000011
30
0
11
73.77859072560598
21
-74.609764599999991
31
0
0
ARC
5
250
100
AcDbEntity
8
0
100
AcDbCircle
10
160.51956082560596
20
-67.097309100000018
30
0
40
0.50000000000000056
210
0
220
-0
230
1
100
AcDbArc
50
8.0000000000003944
51
97.999999999997428
0
ARC
5
251
100
AcDbEntity
8
0
100
AcDbCircle
10
44.859424625605968
20
-46.498921800000005
30
0
40
0.50000000000000056
210
0
220
0
230
1
100
AcDbArc
50
171.99999999999923
51
261.99999999999909
0
LINE
5
252
100
AcDbEntity
8
0
100
AcDbLine
10
141.81868212560599
20
-67.320894299999992
30
0
11
143.62793242560599
21
-80.1943792
31
0
0
LINE
5
253
100
AcDbEntity
8
0
100
AcDbLine
10
62.288808725605975
20
-59.362308800000001
30
0
11
75.162293625605969
21
-61.17155910000001
31
0
0
LINE
5
254
100
AcDbEntity
8
0
100
AcDbLine
10
161.014694825606
20
-67.027722499999996
30
0
11
162.823945125606
21
-79.901207400000004
31
0
0
LINE
5
255
100
AcDbEntity
8
0
100
AcDbLine
10
149.52491282560598
20
-82.275178299999993
30
0
11
162.398397725606
21
-80.465928000000005
31
0
0
ARC
5
256
100
AcDbEntity
8
0
100
AcDbCircle
10
27.141256325605973
20
-35.690340999999997
30
0
40
0.50000000000000056
210
0
220
-0
230
1
100
AcDbArc
50
81.999999999999645
51
172.00000000000006
0
LINE
5
257
100
AcDbEntity
8
0
100
AcDbLine
10
62.991632825605983
20
-54.361455000000014
30
0
11
75.865117725605984
21
-56.170705299999995
31
0
0
LINE
5
258
100
AcDbEntity
8
0
100
AcDbLine
10
158.363447225606
20
-48.163115800000007
30
0
11
160.17269752560594
21
-61.036600700000001
31
0
0
LINE
5
259
100
AcDbEntity
8
0
100
AcDbLine
10
176.56524202560598
20
-40.795716600000006
30
0
11
178.37449232560598
21
-53.6692015
31
0
0
LINE
5
260
100
AcDbEntity
8
0
100
AcDbLine
10
25.262419425605973
20
-49.058959900000005
30
0
11
38.135904325605971
21
-50.868210200000007
31
0
0
LINE
5
261
100
AcDbEntity
8
0
100
AcDbLine
10
144.49969432560599
20
-50.111539299999997
30
0
11
146.30894462560599
21
-62.985024200000012
31
0
0
ARC
5
262
100
AcDbEntity
8
0
100
AcDbCircle
10
60.409971825605979
20
-72.730927699999995
30
0
40
0.50000000000000056
210
0
220
0
230
1
100
AcDbArc
50
172.00000000000091
51
261.99999999999937
0
LINE
5
263
100
AcDbEntity
8
0
100
AcDbLine
10
8.3862483256059726
20
-32.259257300000002
30
0
11
21.25973322560597
21
-34.068507599999997
31
0
0
ARC
5
264
100
AcDbEntity
8
0
100
AcDbCircle
10
200.08383932560599
20
-31.380936500000001
30
0
40
0.50000000000000056
210
0
220
0
230
1
100
AcDbArc
50
187.99999999999997
51
277.99999999999756
0
LINE
5
265
100
AcDbEntity
8
0
100
AcDbLine
10
5.0321767256059724
20
-56.124717799999999
30
0
11
17.905661625605973
21
-57.933968100000008
31
0
0
ARC
5
266
100
AcDbEntity
8
0
100
AcDbCircle
10
5.8045874256059706
20
-50.628729999999997
30
0
40
0.50000000000000056
210
0
220
0
230
1
100
AcDbArc
50
172.00000000000006
51
261.99999999999994
0
LINE
5
267
100
AcDbEntity
8
0
100
AcDbLine
10
20.982456625605973
20
-39.634081999999999
30
0
11
19.173206325605971
21
-52.5075669
31
0
0
LINE
5
268
100
AcDbEntity
8
0
100
AcDbLine
10
197.77945502560598
20
-18.577038199999997
30
0
11
199.58870532560599
21
-31.450523100000005
31
0
0
ARC
5
269
100
AcDbEntity
8
0
100
AcDbCircle
10
4.9625901256059706
20
-56.619851799999992
30
0
40
0.50000000000000033
210
0
220
-0
230
1
100
AcDbArc
50
82.000000000000043
51
172.00000000000003
0
ARC
5
270
100
AcDbEntity
8
0
100
AcDbCircle
10
8.4558349256059717
20
-31.764123300000001
30
0
40
0.50000000000000056
210
0
220
0
230
1
100
AcDbArc
50
172.00000000000006
51
262.00000000000006
0
LINE
5
271
100
AcDbEntity
8
0
100
AcDbLine
10
217.73242102560596
20
-20.077221700000003
30
0
11
230.60590592560598
21
-18.267971399999997
31
0
0
ARC
5
272
100
AcDbEntity
8
0
100
AcDbCircle
10
20.487322625605977
20
-39.564495399999998
30
0
40
0.50000000000000056
210
0
220
0
230
1
100
AcDbArc
50
-7.9999999999999094
51
82.000000000000043
0
LINE
5
273
100
AcDbEntity
8
0
100
AcDbLine
10
29.297369825605976
20
-16.7561477
30
0
11
27.488119525605974
21
-29.629632600000004
31
0
0
LINE
5
274
100
AcDbEntity
8
0
100
AcDbLine
10
43.161122725605978
20
-18.704571200000004
30
0
11
41.351872425605976
21
-31.578056100000001
31
0
0
LINE
5
275
100
AcDbEntity
8
0
100
AcDbLine
10
23.633704125605973
20
-20.7694753
30
0
11
21.824453825605975
21
-33.642960200000005
31
0
0
ARC
5
276
100
AcDbEntity
8
0
100
AcDbCircle
10
147.646075925606
20
-68.906559400000006
30
0
40
0.49999999999999933
210
0
220
0
230
1
100
AcDbArc
50
98.000000000000881
51
188.00000000000085
0
LINE
5
277
100
AcDbEntity
8
0
100
AcDbLine
10
99.121895625605973
20
-67.448427199999998
30
0
11
97.312645325605985
21
-80.321912099999992
31
0
0
ARC
5
278
100
AcDbEntity
8
0
100
AcDbCircle
10
149.45532622560597
20
-81.7800443
30
0
40
0.49999999999999933
210
0
220
0
230
1
100
AcDbArc
50
187.99999999999918
51
278.00000000000085
0
LINE
5
279
100
AcDbEntity
8
0
100
AcDbLine
10
112.98564852560597
20
-69.396850700000002
30
0
11
111.17639822560598
21
-82.27033560000001
31
0
0
ARC
5
280
100
AcDbEntity
8
0
100
AcDbCircle
10
177.87935832560595
20
-53.738788100000008
30
0
40
0.49999999999999933
210
0
220
0
230
1
100
AcDbArc
50
-81.999999999999233
51
8.0000000000000266
0
ARC
5
281
100
AcDbEntity
8
0
100
AcDbCircle
10
10.26508522560597
20
-18.8906384
30
0
40
0.50000000000000022
210
0
220
-0
230
1
100
AcDbArc
50
82.000000000000242
51
172.00000000000006
0
ARC
5
282
100
AcDbEntity
8
0
100
AcDbCircle
10
77.74395462560598
20
-42.802086400000007
30
0
40
0.50000000000000056
210
0
220
0
230
1
100
AcDbArc
50
-7.9999999999998588
51
81.999999999999233
0
ARC
5
283
100
AcDbEntity
8
0
100
AcDbCircle
10
185.85891582560595
20
-67.045245800000004
30
0
40
0.50000000000000056
210
0
220
0
230
1
100
AcDbArc
50
188.00000000000085
51
278.00000000000063
0
ARC
5
284
100
AcDbEntity
8
0
100
AcDbCircle
10
83.072264525605974
20
-48.360235400000001
30
0
40
0.49999999999999933
210
0
220
-0
230
1
100
AcDbArc
50
82.000000000000867
51
172.00000000000017
0
LINE
5
285
100
AcDbEntity
8
0
100
AcDbLine
10
96.440883425605961
20
-50.239072299999997
30
0
11
94.631633125605958
21
-63.112557200000012
31
0
0
ARC
5
286
100
AcDbEntity
8
0
100
AcDbCircle
10
97.807779325605964
20
-80.391498700000014
30
0
40
0.49999999999999933
210
0
220
0
230
1
100
AcDbArc
50
172.0000000000008
51
262.00000000000074
0
LINE
5
287
100
AcDbEntity
8
0
100
AcDbLine
10
29.862090425605974
20
-16.3306003
30
0
11
42.735575325605978
21
-18.139850600000003
31
0
0
ARC
5
288
100
AcDbEntity
8
0
100
AcDbCircle
10
99.617029625605966
20
-67.518013800000006
30
0
40
0.49999999999999933
210
0
220
-0
230
1
100
AcDbArc
50
81.999999999999361
51
171.99999999999918
0
ARC
5
289
100
AcDbEntity
8
0
100
AcDbCircle
10
110.68126422560599
20
-82.200749000000002
30
0
40
0.49999999999999933
210
0
220
0
230
1
100
AcDbArc
50
262.00000000000233
51
352.00000000000097
0
LINE
5
290
100
AcDbEntity
8
0
100
AcDbLine
10
112.56010112560595
20
-68.832130100000001
30
0
11
99.686616225605974
21
-67.022879799999998
31
0
0
LINE
5
291
100
AcDbEntity
8
0
100
AcDbLine
10
80.490603525605991
20
-66.729708099999996
30
0
11
93.364088425605956
21
-68.538958399999999
31
0
0
ARC
5
292
100
AcDbEntity
8
0
100
AcDbCircle
10
23.138570125605973
20
-20.699888699999999
30
0
40
0.50000000000000056
210
0
220
0
230
1
100
AcDbArc
50
-8.0000000000003677
51
81.999999999999645
0
LINE
5
293
100
AcDbEntity
8
0
100
AcDbLine
10
79.925882925605961
20
-67.15525550000001
30
0
11
78.116632625605973
21
-80.028740400000004
31
0
0
LINE
5
294
100
AcDbEntity
8
0
100
AcDbLine
10
93.789635825605984
20
-69.103679
30
0
11
91.980385525605968
21
-81.977163900000022
31
0
0
ARC
5
295
100
AcDbEntity
8
0
100
AcDbCircle
10
155.21706562560601
20
-29.368095699999998
30
0
40
0.50000000000000056
210
0
220
-0
230
1
100
AcDbArc
50
8.0000000000000266
51
98.000000000000753
0
ARC
5
296
100
AcDbEntity
8
0
100
AcDbCircle
10
91.485251525605975
20
-81.9075773
30
0
40
0.49999999999999933
210
0
220
0
230
1
100
AcDbArc
50
262.00000000000233
51
352.00000000000097
0
LINE
5
297
100
AcDbEntity
8
0
100
AcDbLine
10
180.90328392560596
20
-35.376740800000007
30
0
11
182.71253422560596
21
-48.250225700000009
31
0
0
ARC
5
298
100
AcDbEntity
8
0
100
AcDbCircle
10
81.263014225605986
20
-61.233720299999995
30
0
40
0.50000000000000056
210
0
220
0
230
1
100
AcDbArc
50
172.00000000000017
51
261.9999999999992
0
LINE
5
299
100
AcDbEntity
8
0
100
AcDbLine
10
183.27725482560598
20
-48.675773100000008
30
0
11
196.150739725606
21
-46.866522799999998
31
0
0
ARC
5
300
100
AcDbEntity
8
0
100
AcDbCircle
10
83.914261825605962
20
-42.369113599999999
30
0
40
0.50000000000000056
210
0
220
0
230
1
100
AcDbArc
50
172
51
262.00000000000244
0
LINE
5
301
100
AcDbEntity
8
0
100
AcDbLine
10
141.84844672560601
20
-31.246932600000004
30
0
11
143.65769702560598
21
-44.120417500000002
31
0
0
ARC
5
302
100
AcDbEntity
8
0
100
AcDbCircle
10
157.86831322560599
20
-48.232702400000001
30
0
40
0.50000000000000056
210
0
220
-0
230
1
100
AcDbArc
50
8.0000000000000266
51
98.000000000000753
0
ARC
5
303
100
AcDbEntity
8
0
100
AcDbCircle
10
157.02631592560599
20
-42.241580600000006
30
0
40
0.49999999999999933
210
0
220
0
230
1
100
AcDbArc
50
-82.00000000000243
51
8.0000000000000266
0
LINE
5
304
100
AcDbEntity
8
0
100
AcDbLine
10
178.67758382560598
20
-15.947413500000003
30
0
11
191.55106872560597
21
-14.138163199999997
31
0
0
LINE
5
305
100
AcDbEntity
8
0
100
AcDbLine
10
44.789838025605981
20
-46.994055799999998
30
0
11
57.663322925605975
21
-48.803306100000007
31
0
0
ARC
5
306
100
AcDbEntity
8
0
100
AcDbCircle
10
173.41886052560596
20
-22.0006965
30
0
40
0.50000000000000056
210
0
220
-0
230
1
100
AcDbArc
50
8.0000000000000266
51
98.000000000000753
0
ARC
5
307
100
AcDbEntity
8
0
100
AcDbCircle
10
163.19662312560598
20
-42.674553499999995
30
0
40
0.49999999999999933
210
0
220
0
230
1
100
AcDbArc
50
97.999999999997556
51
188
0
ARC
5
308
100
AcDbEntity
8
0
100
AcDbCircle
10
93.294501825605977
20
-69.034092400000006
30
0
40
0.50000000000000056
210
0
220
0
230
1
100
AcDbArc
50
-8.000000000000826
51
82.000000000000739
0
ARC
5
309
100
AcDbEntity
8
0
100
AcDbCircle
10
112.49051452560596
20
-69.327264099999994
30
0
40
0.50000000000000056
210
0
220
0
230
1
100
AcDbArc
50
-8.0000000000006217
51
81.999999999999119
0
LINE
5
310
100
AcDbEntity
8
0
100
AcDbLine
10
67.591303925605956
20
-21.633095399999998
30
0
11
80.464788825605979
21
-23.442345700000004
31
0
0
ARC
5
311
100
AcDbEntity
8
0
100
AcDbCircle
10
160.545375625606
20
-23.809946800000002
30
0
40
0.49999999999999933
210
0
220
0
230
1
100
AcDbArc
50
97.999999999997556
51
188
0
ARC
5
312
100
AcDbEntity
8
0
100
AcDbCircle
10
96.787746725605999
20
-44.178363899999994
30
0
40
0.49999999999999933
210
0
220
0
230
1
100
AcDbArc
50
262.00000000000097
51
351.99999999999937
0
LINE
5
313
100
AcDbEntity
8
0
100
AcDbLine
10
64.94005632560598
20
-40.497702099999998
30
0
11
77.813541225605974
21
-42.3069524
31
0
0
ARC
5
314
100
AcDbEntity
8
0
100
AcDbCircle
10
178.74717042560593
20
-16.4425475
30
0
40
0.49999999999999933
210
0
220
0
230
1
100
AcDbArc
50
97.999999999997556
51
188
0
ARC
5
315
100
AcDbEntity
8
0
100
AcDbCircle
10
95.945749425605968
20
-50.169485700000003
30
0
40
0.50000000000000056
210
0
220
0
230
1
100
AcDbArc
50
-8.0000000000000107
51
82.000000000000867
0
ARC
5
316
100
AcDbEntity
8
0
100
AcDbCircle
10
176.07010802560598
20
-40.865303200000007
30
0
40
0.50000000000000056
210
0
220
-0
230
1
100
AcDbArc
50
8.0000000000000266
51
97.999999999997556
0
ARC
5
317
100
AcDbEntity
8
0
100
AcDbCircle
10
80.421016925605983
20
-67.224842100000018
30
0
40
0.49999999999999933
210
0
220
-0
230
1
100
AcDbArc
50
82.000000000000966
51
171.99999999999937
0
LINE
5
318
100
AcDbEntity
8
0
100
AcDbLine
10
65.642880425605981
20
-35.496848299999996
30
0
11
78.516365325605975
21
-37.306098600000006
31
0
0
LINE
5
319
100
AcDbEntity
8
0
100
AcDbLine
10
110.61167762560599
20
-82.695883000000009
30
0
11
97.738192725605998
21
-80.886632700000007
31
0
0
LINE
5
320
100
AcDbEntity
8
0
100
AcDbLine
10
9.769951225605972
20
-18.821051799999999
30
0
11
7.9607009256059715
21
-31.694536699999997
31
0
0
LINE
5
321
100
AcDbEntity
8
0
100
AcDbLine
10
162.42421252560598
20
-37.178565700000007
30
0
11
175.29769742560597
21
-35.369315399999998
31
0
0
LINE
5
322
100
AcDbEntity
8
0
100
AcDbLine
10
82.577130525605966
20
-48.2906488
30
0
11
80.767880225605978
21
-61.164133700000008
31
0
0
LINE
5
323
100
AcDbEntity
8
0
100
AcDbLine
10
160.47578902560593
20
-23.314812799999999
30
0
11
173.34927392560598
21
-21.505562500000003
31
0
0
LINE
5
324
100
AcDbEntity
8
0
100
AcDbLine
10
78.239088625605973
20
-42.871673000000001
30
0
11
76.429838325605971
21
-55.745157900000002
31
0
0
ARC
5
325
100
AcDbEntity
8
0
100
AcDbCircle
10
144.99482832560599
20
-50.041952700000003
30
0
40
0.49999999999999933
210
0
220
0
230
1
100
AcDbArc
50
98.000000000000753
51
187.9999999999996
0
LINE
5
326
100
AcDbEntity
8
0
100
AcDbLine
10
181.32883132560596
20
-34.812020200000006
30
0
11
194.20231622560601
21
-33.002769899999997
31
0
0
ARC
5
327
100
AcDbEntity
8
0
100
AcDbCircle
10
78.611766625605966
20
-80.098327000000012
30
0
40
0.49999999999999933
210
0
220
0
230
1
100
AcDbArc
50
171.99999999999918
51
262.00000000000074
0
LINE
5
328
100
AcDbEntity
8
0
100
AcDbLine
10
219.95812122560602
20
-39.506549
30
0
11
221.76737152560599
21
-52.380033900000001
31
0
0
LINE
5
329
100
AcDbEntity
8
0
100
AcDbLine
10
211.64320792560599
20
-16.6286147
30
0
11
213.45245822560599
21
-29.502099600000005
31
0
0
ARC
5
330
100
AcDbEntity
8
0
100
AcDbCircle
10
18.678072325605971
20
-52.4379803
30
0
40
0.50000000000000022
210
0
220
0
230
1
100
AcDbArc
50
262.00000000000045
51
352.00000000000011
0
LINE
5
331
100
AcDbEntity
8
0
100
AcDbLine
10
231.170626525606
20
-18.6935188
30
0
11
232.97987682560597
21
-31.567003700000001
31
0
0
ARC
5
332
100
AcDbEntity
8
0
100
AcDbCircle
10
7.6138377256059719
20
-37.755245100000003
30
0
40
0.50000000000000033
210
0
220
-0
230
1
100
AcDbArc
50
81.999999999999943
51
172.00000000000006
0
LINE
5
333
100
AcDbEntity
8
0
100
AcDbLine
10
7.683424325605972
20
-37.260111100000003
30
0
11
20.55690922560597
21
-39.069361399999998
31
0
0
LINE
5
334
100
AcDbEntity
8
0
100
AcDbLine
10
194.76703682560597
20
-33.428317300000003
30
0
11
196.57628712560603
21
-46.301802200000004
31
0
0
LINE
5
335
100
AcDbEntity
8
0
100
AcDbLine
10
47.44108552560597
20
-28.129449100000006
30
0
11
60.314570425605979
21
-29.938699400000001
31
0
0
ARC
5
336
100
AcDbEntity
8
0
100
AcDbCircle
10
44.017427325605965
20
-52.490043600000007
30
0
40
0.50000000000000056
210
0
220
-0
230
1
100
AcDbArc
50
81.999999999999233
51
172.00000000000006
0
ARC
5
337
100
AcDbEntity
8
0
100
AcDbCircle
10
191.62065532560601
20
-14.633297199999999
30
0
40
0.50000000000000022
210
0
220
-0
230
1
100
AcDbArc
50
8.0000000000000266
51
98.000000000000753
0
ARC
5
338
100
AcDbEntity
8
0
100
AcDbCircle
10
57.732909525605976
20
-48.3081721
30
0
40
0.50000000000000056
210
0
220
0
230
1
100
AcDbArc
50
262.00000000000006
51
352.00000000000011
0
ARC
5
339
100
AcDbEntity
8
0
100
AcDbCircle
10
220.45325522560597
20
-39.436962399999999
30
0
40
0.49999999999999933
210
0
220
0
230
1
100
AcDbArc
50
98.000000000000753
51
187.9999999999996
0
ARC
5
340
100
AcDbEntity
8
0
100
AcDbCircle
10
194.27190282560599
20
-33.497903899999997
30
0
40
0.50000000000000056
210
0
220
-0
230
1
100
AcDbArc
50
8.0000000000000266
51
98.000000000000753
0
LINE
5
341
100
AcDbEntity
8
0
100
AcDbLine
10
24.559595325605976
20
-54.059813699999999
30
0
11
37.43308022560597
21
-55.869064000000002
31
0
0
LINE
5
342
100
AcDbEntity
8
0
100
AcDbLine
10
48.824788425605981
20
-14.6912436
30
0
11
47.015538125605971
21
-27.564728499999998
31
0
0
ARC
5
343
100
AcDbEntity
8
0
100
AcDbCircle
10
212.95732422560602
20
-29.571686199999995
30
0
40
0.49999999999999933
210
0
220
0
230
1
100
AcDbArc
50
-82.00000000000243
51
8.0000000000000266
0
LINE
5
344
100
AcDbEntity
8
0
100
AcDbLine
10
219.68084452560595
20
-33.940974600000004
30
0
11
232.55432942560594
21
-32.131724300000002
31
0
0
ARC
5
345
100
AcDbEntity
8
0
100
AcDbCircle
10
211.14807392560596
20
-16.698201300000001
30
0
40
0.50000000000000022
210
0
220
-0
230
1
100
AcDbArc
50
8.0000000000000266
51
97.999999999997556
0
LINE
5
346
100
AcDbEntity
8
0
100
AcDbLine
10
27.913666925605973
20
-30.194353200000002
30
0
11
40.787151825605974
21
-32.003603499999997
31
0
0
ARC
5
347
100
AcDbEntity
8
0
100
AcDbCircle
10
56.89091222560598
20
-54.299293900000009
30
0
40
0.50000000000000056
210
0
220
0
230
1
100
AcDbArc
50
-7.9999999999999094
51
82.000000000000043
0
ARC
5
348
100
AcDbEntity
8
0
100
AcDbCircle
10
27.983253525605978
20
-29.699219200000002
30
0
40
0.50000000000000056
210
0
220
0
230
1
100
AcDbArc
50
171.99999999999966
51
261.9999999999996
0
ARC
5
349
100
AcDbEntity
8
0
100
AcDbCircle
10
67.521717325605977
20
-22.128229400000002
30
0
40
0.50000000000000056
210
0
220
-0
230
1
100
AcDbArc
50
81.999999999999233
51
171.99999999999952
0
ARC
5
350
100
AcDbEntity
8
0
100
AcDbCircle
10
49.319922425605974
20
-14.760830199999999
30
0
40
0.50000000000000056
210
0
220
-0
230
1
100
AcDbArc
50
82.000000000000043
51
172.00000000000006
0
ARC
5
351
100
AcDbEntity
8
0
100
AcDbCircle
10
47.510672125605964
20
-27.634315100000002
30
0
40
0.50000000000000056
210
0
220
0
230
1
100
AcDbArc
50
172.00000000000006
51
262.00000000000006
0
LINE
5
352
100
AcDbEntity
8
0
100
AcDbLine
10
22.611171825605972
20
-67.923566600000001
30
0
11
35.484656725605966
21
-69.732816900000017
31
0
0
ARC
5
353
100
AcDbEntity
8
0
100
AcDbCircle
10
60.38415702560598
20
-29.443565399999997
30
0
40
0.50000000000000056
210
0
220
0
230
1
100
AcDbArc
50
262.00000000000006
51
351.9999999999996
0
LINE
5
354
100
AcDbEntity
8
0
100
AcDbLine
10
57.386046225605973
20
-54.368880500000003
30
0
11
55.576795925605964
21
-67.242365400000011
31
0
0
ARC
5
355
100
AcDbEntity
8
0
100
AcDbCircle
10
75.092707025605975
20
-61.666693099999996
30
0
40
0.50000000000000056
210
0
220
0
230
1
100
AcDbArc
50
-7.9999999999998588
51
81.999999999999233
0
ARC
5
356
100
AcDbEntity
8
0
100
AcDbCircle
10
40.014741225605981
20
-37.499591299999992
30
0
40
0.49999999999999178
210
0
220
0
230
1
100
AcDbArc
50
-8.0000000000000107
51
82.000000000000867
0
ARC
5
357
100
AcDbEntity
8
0
100
AcDbCircle
10
62.219222125605967
20
-59.857442799999994
30
0
40
0.50000000000000056
210
0
220
-0
230
1
100
AcDbArc
50
81.999999999999233
51
172.00000000000006
0
ARC
5
358
100
AcDbEntity
8
0
100
AcDbCircle
10
62.193407325605975
20
-16.5700805
30
0
40
0.50000000000000022
210
0
220
0
230
1
100
AcDbArc
50
-7.9999999999998588
51
81.999999999999233
0
ARC
5
359
100
AcDbEntity
8
0
100
AcDbCircle
10
230.67549252560599
20
-18.763105399999997
30
0
40
0.50000000000000022
210
0
220
-0
230
1
100
AcDbArc
50
8.0000000000000266
51
97.999999999997556
0
ARC
5
360
100
AcDbEntity
8
0
100
AcDbCircle
10
40.856738425605968
20
-31.5084695
30
0
40
0.50000000000000056
210
0
220
0
230
1
100
AcDbArc
50
262
51
351.99999999999983
0
ARC
5
361
100
AcDbEntity
8
0
100
AcDbCircle
10
75.934704325605964
20
-55.675571300000009
30
0
40
0.50000000000000056
210
0
220
0
230
1
100
AcDbArc
50
262.00000000000085
51
352.00000000000011
0
LINE
5
362
100
AcDbEntity
8
0
100
AcDbLine
10
46.738261525605978
20
-33.130302899999997
30
0
11
59.611746425605965
21
-34.939553199999999
31
0
0
ARC
5
363
100
AcDbEntity
8
0
100
AcDbCircle
10
73.283456725605987
20
-74.540177999999997
30
0
40
0.50000000000000056
210
0
220
0
230
1
100
AcDbArc
50
261.99999999999937
51
351.99999999999915
0
LINE
5
364
100
AcDbEntity
8
0
100
AcDbLine
10
200.85624992560599
20
-36.876924299999999
30
0
11
213.72973482560599
21
-35.067673999999997
31
0
0
ARC
5
365
100
AcDbEntity
8
0
100
AcDbCircle
10
59.542159825605978
20
-35.434687200000006
30
0
40
0.50000000000000056
210
0
220
0
230
1
100
AcDbArc
50
-7.9999999999999094
51
82.000000000000043
0
LINE
5
366
100
AcDbEntity
8
0
100
AcDbLine
10
23.994874725605971
20
-54.485361100000006
30
0
11
22.185624425605972
21
-67.358846
31
0
0
LINE
5
367
100
AcDbEntity
8
0
100
AcDbLine
10
62.688541325605975
20
-16.6396671
30
0
11
60.87929102560598
21
-29.513152000000002
31
0
0
LINE
5
368
100
AcDbEntity
8
0
100
AcDbLine
10
60.037293825605971
20
-35.504273799999993
30
0
11
58.228043525605969
21
-48.377758700000015
31
0
0
LINE
5
369
100
AcDbEntity
8
0
100
AcDbLine
10
27.210842925605974
20
-35.195207000000003
30
0
11
40.084327825605968
21
-37.004457299999999
31
0
0
LINE
5
370
100
AcDbEntity
8
0
100
AcDbLine
10
192.11578932560599
20
-14.563710600000002
30
0
11
193.92503962560599
21
-27.437195500000001
31
0
0
LINE
5
371
100
AcDbEntity
8
0
100
AcDbLine
10
64.375335725605979
20
-40.923249499999997
30
0
11
62.566085425605976
21
-53.796734400000012
31
0
0
LINE
5
372
100
AcDbEntity
8
0
100
AcDbLine
10
60.340385225605971
20
-73.226061700000002
30
0
11
73.213870125605965
21
-75.035312000000005
31
0
0
ARC
5
373
100
AcDbEntity
8
0
100
AcDbCircle
10
46.668674925605977
20
-33.625436900000011
30
0
40
0.50000000000000056
210
0
220
-0
230
1
100
AcDbArc
50
82.000000000000156
51
171.99999999999923
0
ARC
5
374
100
AcDbEntity
8
0
100
AcDbCircle
10
213.79932142560597
20
-35.562808000000004
30
0
40
0.50000000000000056
210
0
220
-0
230
1
100
AcDbArc
50
7.9999999999996154
51
97.999999999997556
0
ARC
5
375
100
AcDbEntity
8
0
100
AcDbCircle
10
193.42990562560598
20
-27.506782100000002
30
0
40
0.49999999999999933
210
0
220
0
230
1
100
AcDbArc
50
-82.00000000000243
51
8.0000000000000266
0
ARC
5
376
100
AcDbEntity
8
0
100
AcDbCircle
10
42.208177025605977
20
-65.363528500000001
30
0
40
0.50000000000000056
210
0
220
0
230
1
100
AcDbArc
50
171.99999999999923
51
261.99999999999909
0
LINE
5
377
100
AcDbEntity
8
0
100
AcDbLine
10
200.15342592560597
20
-31.876070500000004
30
0
11
213.026910825606
21
-30.066820199999999
31
0
0
LINE
5
378
100
AcDbEntity
8
0
100
AcDbLine
10
40.509875225605967
20
-37.5691779
30
0
11
38.700624925605979
21
-50.442662799999994
31
0
0
ARC
5
379
100
AcDbEntity
8
0
100
AcDbCircle
10
219.61125792560603
20
-33.445840600000011
30
0
40
0.50000000000000056
210
0
220
0
230
1
100
AcDbArc
50
187.9999999999996
51
277.99999999999767
0
ARC
5
380
100
AcDbEntity
8
0
100
AcDbCircle
10
35.554243325605974
20
-69.237682899999996
30
0
40
0.50000000000000056
210
0
220
0
230
1
100
AcDbArc
50
262.00000000000011
51
351.99999999999926
0
ARC
5
381
100
AcDbEntity
8
0
100
AcDbCircle
10
38.205490925605972
20
-50.373076200000007
30
0
40
0.50000000000000056
210
0
220
0
230
1
100
AcDbArc
50
262.00000000000006
51
352.00000000000011
0
ARC
5
382
100
AcDbEntity
8
0
100
AcDbCircle
10
233.32674012560602
20
-37.627712100000004
30
0
40
0.50000000000000056
210
0
220
-0
230
1
100
AcDbArc
50
8.0000000000000266
51
98.000000000000753
0
ARC
5
383
100
AcDbEntity
8
0
100
AcDbCircle
10
25.332006025605974
20
-48.563825899999998
30
0
40
0.50000000000000056
210
0
220
0
230
1
100
AcDbArc
50
172.00000000000006
51
261.9999999999996
0
ARC
5
384
100
AcDbEntity
8
0
100
AcDbCircle
10
232.48474282560602
20
-31.636590299999998
30
0
40
0.49999999999999933
210
0
220
0
230
1
100
AcDbArc
50
-82.00000000000253
51
8.0000000000004832
0
ARC
5
385
100
AcDbEntity
8
0
100
AcDbCircle
10
24.490008725605975
20
-54.554947700000014
30
0
40
0.50000000000000056
210
0
220
-0
230
1
100
AcDbArc
50
82.000000000000043
51
172.00000000000006
0
LINE
5
386
100
AcDbEntity
8
0
100
AcDbLine
10
214.294455425606
20
-35.493221399999996
30
0
11
216.10370572560601
21
-48.366706300000004
31
0
0
LINE
5
387
100
AcDbEntity
8
0
100
AcDbLine
10
220.38366862560596
20
-38.941828399999999
30
0
11
233.25715352560596
21
-37.132578100000003
31
0
0
LINE
5
388
100
AcDbEntity
8
0
100
AcDbLine
10
26.646122325605969
20
-35.620754400000003
30
0
11
24.836872025605974
21
-48.494239300000004
31
0
0
LINE
5
389
100
AcDbEntity
8
0
100
AcDbLine
10
37.858627625605969
20
-56.43378460000001
30
0
11
36.049377325605967
21
-69.30726949999999
31
0
0
ARC
5
390
100
AcDbEntity
8
0
100
AcDbCircle
10
217.802007625606
20
-20.572355699999999
30
0
40
0.49999999999999933
210
0
220
0
230
1
100
AcDbArc
50
97.999999999997556
51
188.00000000000048
0
LINE
5
391
100
AcDbEntity
8
0
100
AcDbLine
10
200.43070252560597
20
-37.441644899999993
30
0
11
202.239952825606
21
-50.315129799999994
31
0
0
ARC
5
392
100
AcDbEntity
8
0
100
AcDbCircle
10
200.92583652560597
20
-37.372058299999999
30
0
40
0.49999999999999933
210
0
220
0
230
1
100
AcDbArc
50
97.999999999997556
51
188.00000000000085
0
LINE
5
393
100
AcDbEntity
8
0
100
AcDbLine
10
233.821874125606
20
-37.558125500000003
30
0
11
235.631124425606
21
-50.431610400000004
31
0
0
LINE
5
394
100
AcDbEntity
8
0
100
AcDbLine
10
183.98007892560599
20
-53.676626899999995
30
0
11
196.85356382560599
21
-51.8673766
31
0
0
ARC
5
395
100
AcDbEntity
8
0
100
AcDbCircle
10
98.596997025605972
20
-31.304879000000003
30
0
40
0.50000000000000056
210
0
220
0
230
1
100
AcDbArc
50
-8.0000000000002149
51
82.000000000000867
0
CIRCLE
5
396
100
AcDbEntity
8
0
100
AcDbCircle
10
20.486949605771244
20
-55.788539074035263
30
0
40
1.5999999999999974
210
0
220
0
230
1
0
CIRCLE
5
397
100
AcDbEntity
8
0
100
AcDbCircle
10
20.486949605771244
20
-55.788539074035263
30
0
40
2.8999999999999999
210
0
220
0
230
1
0
CIRCLE
5
398
100
AcDbEntity
8
0
100
AcDbCircle
10
23.171086052664428
20
-36.904067926794504
30
0
40
1.6000000000000023
210
0
220
0
230
1
0
CIRCLE
5
399
100
AcDbEntity
8
0
100
AcDbCircle
10
23.171086052664428
20
-36.904067926794504
30
0
40
2.9000000000000004
210
0
220
0
230
1
0
CIRCLE
5
400
100
AcDbEntity
8
0
100
AcDbCircle
10
217.75695240226872
20
-36.725698626350741
30
0
40
1.600000000000007
210
0
220
0
230
1
0
CIRCLE
5
401
100
AcDbEntity
8
0
100
AcDbCircle
10
217.75695240226872
20
-36.725698626350741
30
0
40
2.8999999999999866
210
0
220
0
230
1
0
CIRCLE
5
402
100
AcDbEntity
8
0
100
AcDbCircle
10
220.45283969495478
20
-55.610840356415423
30
0
40
1.5999999999999943
210
0
220
0
230
1
0
CIRCLE
5
403
100
AcDbEntity
8
0
100
AcDbCircle
10
220.45283969495478
20
-55.610840356415423
30
0
40
2.9000000000000039
210
0
220
0
230
1
0
CIRCLE
5
404
100
AcDbEntity
8
0
100
AcDbCircle
10
106.11534901076053
20
-20.793936790303675
30
0
40
2.8999999999999941
210
0
220
0
230
1
0
CIRCLE
5
405
100
AcDbEntity
8
0
100
AcDbCircle
10
135.36430901075983
20
-20.793936790303675
30
0
40
2.9000000000000048
210
0
220
0
230
1
0
CIRCLE
5
406
100
AcDbEntity
8
0
100
AcDbCircle
10
120.73982901076013
20
-83.356436790302567
30
0
40
2.9000000000000052
210
0
220
0
230
1
0
CIRCLE
5
407
100
AcDbEntity
8
0
100
AcDbCircle
10
120.73982901076013
20
-83.356436790302567
30
0
40
1.600000000000005
210
0
220
0
230
1
0
CIRCLE
5
408
100
AcDbEntity
8
0
100
AcDbCircle
10
106.11534901076053
20
-20.793936790303675
30
0
40
1.6000000000000054
210
0
220
0
230
1
0
CIRCLE
5
409
100
AcDbEntity
8
0
100
AcDbCircle
10
135.36430901075983
20
-20.793936790303675
30
0
40
1.599999999999999
210
0
220
0
230
1
0
ENDSEC
0
SECTION
2
OBJECTS
0
DICTIONARY
5
C
100
AcDbDictionary
3
ACAD_GROUP
350
D
3
ACAD_MLINESTYLE
350
17
0
DICTIONARY
5
D
100
AcDbDictionary
0
DICTIONARY
5
1A
330
C
100
AcDbDictionary
0
DICTIONARY
5
17
100
AcDbDictionary
0
ENDSEC
0
EOF
