0
SECTION
2
HEADER
9
$INSUNITS
70
4
0
ENDSEC
0
SECTION
2
TABLES
0
TABLE
2
LTYPE
0
LTYPE
72
65
70
64
2
CONTINUOUS
3
______
73
0
40
0
0
ENDTAB
0
TABLE
2
LAYER
0
ENDTAB
0
ENDSEC
0
SECTION
2
ENTITIES
0
LINE
8
0
10
49.1428537
20
-14.2656962
11
62.0163386
21
-16.0749465
0
LINE
8
0
10
47.1944302
20
-28.1294491
11
60.0679151
21
-29.9386994
0
LINE
8
0
10
48.5781331
20
-14.6912436
11
46.7688828
21
-27.5647285
0
LINE
8
0
10
62.441886
20
-16.6396671
11
60.6326357
21
-29.513152
0
ARC
8
0
10
49.0732671
20
-14.7608302
40
0.5
50
82
51
172
0
ARC
8
0
10
61.946752
20
-16.5700805
40
0.5
50
352
51
82
0
ARC
8
0
10
47.2640168
20
-27.6343151
40
0.5
50
172
51
262
0
ARC
8
0
10
60.1375017
20
-29.4435654
40
0.5
50
262
51
352
0
LINE
8
0
10
29.6154351
20
-16.3306003
11
42.48892
21
-18.1398506
0
LINE
8
0
10
27.6670116
20
-30.1943532
11
40.5404965
21
-32.0036035
0
LINE
8
0
10
29.0507145
20
-16.7561477
11
27.2414642
21
-29.6296326
0
LINE
8
0
10
42.9144674
20
-18.7045712
11
41.1052171
21
-31.5780561
0
ARC
8
0
10
29.5458485
20
-16.8257343
40
0.5
50
82
51
172
0
ARC
8
0
10
42.4193334
20
-18.6349846
40
0.5
50
352
51
82
0
ARC
8
0
10
27.7365982
20
-29.6992192
40
0.5
50
172
51
262
0
ARC
8
0
10
40.6100831
20
-31.5084695
40
0.5
50
262
51
352
0
LINE
8
0
10
67.3446486
20
-21.6330954
11
80.2181335
21
-23.4423457
0
LINE
8
0
10
65.3962251
20
-35.4968483
11
78.26971
21
-37.3060986
0
LINE
8
0
10
66.779928
20
-22.0586428
11
64.9706777
21
-34.9321277
0
LINE
8
0
10
80.6436809
20
-24.0070663
11
78.8344306
21
-36.8805512
0
ARC
8
0
10
67.275062
20
-22.1282294
40
0.5
50
82
51
172
0
ARC
8
0
10
80.1485469
20
-23.9374797
40
0.5
50
352
51
82
0
ARC
8
0
10
65.4658117
20
-35.0017143
40
0.5
50
172
51
262
0
ARC
8
0
10
78.3392966
20
-36.8109646
40
0.5
50
262
51
352
0
LINE
8
0
10
10.0880165
20
-18.3955044
11
22.9615014
21
-20.2047547
0
LINE
8
0
10
8.139593
20
-32.2592573
11
21.0130779
21
-34.0685076
0
LINE
8
0
10
9.5232959
20
-18.8210518
11
7.7140456
21
-31.6945367
0
LINE
8
0
10
23.3870488
20
-20.7694753
11
21.5777985
21
-33.6429602
0
ARC
8
0
10
10.0184299
20
-18.8906384
40
0.5
50
82
51
172
0
ARC
8
0
10
22.8919148
20
-20.6998887
40
0.5
50
352
51
82
0
ARC
8
0
10
8.2091796
20
-31.7641233
40
0.5
50
172
51
262
0
ARC
8
0
10
21.0826645
20
-33.5733736
40
0.5
50
262
51
352
0
LINE
8
0
10
85.5464434
20
-29.0004947
11
98.4199283
21
-30.809745
0
LINE
8
0
10
83.5980199
20
-42.8642476
11
96.4715048
21
-44.6734979
0
LINE
8
0
10
84.9817228
20
-29.4260421
11
83.1724725
21
-42.299527
0
LINE
8
0
10
98.8454757
20
-31.3744656
11
97.0362254
21
-44.2479505
0
ARC
8
0
10
85.4768568
20
-29.4956287
40
0.5
50
82
51
172
0
ARC
8
0
10
98.3503417
20
-31.304879
40
0.5
50
352
51
82
0
ARC
8
0
10
83.6676065
20
-42.3691136
40
0.5
50
172
51
262
0
ARC
8
0
10
96.5410914
20
-44.1783639
40
0.5
50
262
51
352
0
LINE
8
0
10
46.4916062
20
-33.1303029
11
59.3650911
21
-34.9395532
0
LINE
8
0
10
44.5431827
20
-46.9940558
11
57.4166676
21
-48.8033061
0
LINE
8
0
10
45.9268856
20
-33.5558503
11
44.1176353
21
-46.4293352
0
LINE
8
0
10
59.7906385
20
-35.5042738
11
57.9813882
21
-48.3777587
0
ARC
8
0
10
46.4220196
20
-33.6254369
40
0.5
50
82
51
172
0
ARC
8
0
10
59.2955045
20
-35.4346872
40
0.5
50
352
51
82
0
ARC
8
0
10
44.6127693
20
-46.4989218
40
0.5
50
172
51
262
0
ARC
8
0
10
57.4862542
20
-48.3081721
40
0.5
50
262
51
352
0
LINE
8
0
10
26.9641876
20
-35.195207
11
39.8376725
21
-37.0044573
0
LINE
8
0
10
25.0157641
20
-49.0589599
11
37.889249
21
-50.8682102
0
LINE
8
0
10
26.399467
20
-35.6207544
11
24.5902167
21
-48.4942393
0
LINE
8
0
10
40.2632199
20
-37.5691779
11
38.4539696
21
-50.4426628
0
ARC
8
0
10
26.894601
20
-35.690341
40
0.5
50
82
51
172
0
ARC
8
0
10
39.7680859
20
-37.4995913
40
0.5
50
352
51
82
0
ARC
8
0
10
25.0853507
20
-48.5638259
40
0.5
50
172
51
262
0
ARC
8
0
10
37.9588356
20
-50.3730762
40
0.5
50
262
51
352
0
LINE
8
0
10
64.693401
20
-40.4977021
11
77.5668859
21
-42.3069524
0
LINE
8
0
10
62.7449775
20
-54.361455
11
75.6184624
21
-56.1707053
0
LINE
8
0
10
64.1286804
20
-40.9232495
11
62.3194301
21
-53.7967344
0
LINE
8
0
10
77.9924333
20
-42.871673
11
76.183183
21
-55.7451579
0
ARC
8
0
10
64.6238144
20
-40.9928361
40
0.5
50
82
51
172
0
ARC
8
0
10
77.4972993
20
-42.8020864
40
0.5
50
352
51
82
0
ARC
8
0
10
62.8145641
20
-53.866321
40
0.5
50
172
51
262
0
ARC
8
0
10
75.688049
20
-55.6755713
40
0.5
50
262
51
352
0
LINE
8
0
10
7.436769
20
-37.2601111
11
20.3102539
21
-39.0693614
0
LINE
8
0
10
5.4883455
20
-51.123864
11
18.3618304
21
-52.9331143
0
LINE
8
0
10
6.8720484
20
-37.6856585
11
5.0627981
21
-50.5591434
0
LINE
8
0
10
20.7358013
20
-39.634082
11
18.926551
21
-52.5075669
0
ARC
8
0
10
7.3671824
20
-37.7552451
40
0.5
50
82
51
172
0
ARC
8
0
10
20.2406673
20
-39.5644954
40
0.5
50
352
51
82
0
ARC
8
0
10
5.5579321
20
-50.62873
40
0.5
50
172
51
262
0
ARC
8
0
10
18.431417
20
-52.4379803
40
0.5
50
262
51
352
0
LINE
8
0
10
82.8951958
20
-47.8651014
11
95.7686807
21
-49.6743517
0
LINE
8
0
10
80.9467723
20
-61.7288543
11
93.8202572
21
-63.5381046
0
LINE
8
0
10
82.3304752
20
-48.2906488
11
80.5212249
21
-61.1641337
0
LINE
8
0
10
96.1942281
20
-50.2390723
11
94.3849778
21
-63.1125572
0
ARC
8
0
10
82.8256092
20
-48.3602354
40
0.5
50
82
51
172
0
ARC
8
0
10
95.6990941
20
-50.1694857
40
0.5
50
352
51
82
0
ARC
8
0
10
81.0163589
20
-61.2337203
40
0.5
50
172
51
262
0
ARC
8
0
10
93.8898438
20
-63.0429706
40
0.5
50
262
51
352
0
LINE
8
0
10
43.8403586
20
-51.9949096
11
56.7138435
21
-53.8041599
0
LINE
8
0
10
41.8919351
20
-65.8586625
11
54.76542
21
-67.6679128
0
LINE
8
0
10
43.275638
20
-52.420457
11
41.4663877
21
-65.2939419
0
LINE
8
0
10
57.1393909
20
-54.3688805
11
55.3301406
21
-67.2423654
0
ARC
8
0
10
43.770772
20
-52.4900436
40
0.5
50
82
51
172
0
ARC
8
0
10
56.6442569
20
-54.2992939
40
0.5
50
352
51
82
0
ARC
8
0
10
41.9615217
20
-65.3635285
40
0.5
50
172
51
262
0
ARC
8
0
10
54.8350066
20
-67.1727788
40
0.5
50
262
51
352
0
LINE
8
0
10
24.31294
20
-54.0598137
11
37.1864249
21
-55.869064
0
LINE
8
0
10
22.3645165
20
-67.9235666
11
35.2380014
21
-69.7328169
0
LINE
8
0
10
23.7482194
20
-54.4853611
11
21.9389691
21
-67.358846
0
LINE
8
0
10
37.6119723
20
-56.4337846
11
35.802722
21
-69.3072695
0
ARC
8
0
10
24.2433534
20
-54.5549477
40
0.5
50
82
51
172
0
ARC
8
0
10
37.1168383
20
-56.364198
40
0.5
50
352
51
82
0
ARC
8
0
10
22.4341031
20
-67.4284326
40
0.5
50
172
51
262
0
ARC
8
0
10
35.307588
20
-69.2376829
40
0.5
50
262
51
352
0
LINE
8
0
10
62.0421534
20
-59.3623088
11
74.9156383
21
-61.1715591
0
LINE
8
0
10
60.0937299
20
-73.2260617
11
72.9672148
21
-75.035312
0
LINE
8
0
10
61.4774328
20
-59.7878562
11
59.6681825
21
-72.6613411
0
LINE
8
0
10
75.3411857
20
-61.7362797
11
73.5319354
21
-74.6097646
0
ARC
8
0
10
61.9725668
20
-59.8574428
40
0.5
50
82
51
172
0
ARC
8
0
10
74.8460517
20
-61.6666931
40
0.5
50
352
51
82
0
ARC
8
0
10
60.1633165
20
-72.7309277
40
0.5
50
172
51
262
0
ARC
8
0
10
73.0368014
20
-74.540178
40
0.5
50
262
51
352
0
LINE
8
0
10
112.7389932
20
-69.3968507
11
110.9297429
21
-82.2703356
0
LINE
8
0
10
98.8752403
20
-67.4484272
11
97.06599
21
-80.3219121
0
LINE
8
0
10
112.3134458
20
-68.8321301
11
99.4399609
21
-67.0228798
0
LINE
8
0
10
110.3650223
20
-82.695883
11
97.4915374
21
-80.8866327
0
ARC
8
0
10
112.2438592
20
-69.3272641
40
0.5
50
352
51
82
0
ARC
8
0
10
110.4346089
20
-82.200749
40
0.5
50
262
51
352
0
ARC
8
0
10
99.3703743
20
-67.5180138
40
0.5
50
82
51
172
0
ARC
8
0
10
97.561124
20
-80.3914987
40
0.5
50
172
51
262
0
LINE
8
0
10
4.7855214
20
-56.1247178
11
17.6590063
21
-57.9339681
0
LINE
8
0
10
2.8370979
20
-69.9884707
11
15.7105828
21
-71.797721
0
LINE
8
0
10
4.2208008
20
-56.5502652
11
2.4115505
21
-69.4237501
0
LINE
8
0
10
18.0845537
20
-58.4986887
11
16.2753034
21
-71.3721736
0
ARC
8
0
10
4.7159348
20
-56.6198518
40
0.5
50
82
51
172
0
ARC
8
0
10
17.5894197
20
-58.4291021
40
0.5
50
352
51
82
0
ARC
8
0
10
2.9066845
20
-69.4933367
40
0.5
50
172
51
262
0
ARC
8
0
10
15.7801694
20
-71.302587
40
0.5
50
262
51
352
0
LINE
8
0
10
80.2439482
20
-66.7297081
11
93.1174331
21
-68.5389584
0
LINE
8
0
10
78.2955247
20
-80.593461
11
91.1690096
21
-82.4027113
0
LINE
8
0
10
79.6792276
20
-67.1552555
11
77.8699773
21
-80.0287404
0
LINE
8
0
10
93.5429805
20
-69.103679
11
91.7337302
21
-81.9771639
0
ARC
8
0
10
80.1743616
20
-67.2248421
40
0.5
50
82
51
172
0
ARC
8
0
10
93.0478465
20
-69.0340924
40
0.5
50
352
51
82
0
ARC
8
0
10
78.3651113
20
-80.098327
40
0.5
50
172
51
262
0
ARC
8
0
10
91.2385962
20
-81.9075773
40
0.5
50
262
51
352
0
LINE
8
0
10
178.4309285
20
-15.9474135
11
191.3044134
21
-14.1381632
0
LINE
8
0
10
180.379352
20
-29.8111664
11
193.2528369
21
-28.0019161
0
LINE
8
0
10
178.0053811
20
-16.5121341
11
179.8146314
21
-29.385619
0
LINE
8
0
10
191.869134
20
-14.5637106
11
193.6783843
21
-27.4371955
0
ARC
8
0
10
178.5005151
20
-16.4425475
40
0.5
50
98
51
188
0
ARC
8
0
10
191.374
20
-14.6332972
40
0.5
50
8
51
98
0
ARC
8
0
10
180.3097654
20
-29.3160324
40
0.5
50
188
51
278
0
ARC
8
0
10
193.1832503
20
-27.5067821
40
0.5
50
278
51
8
0
LINE
8
0
10
160.2291337
20
-23.3148128
11
173.1026186
21
-21.5055625
0
LINE
8
0
10
162.1775572
20
-37.1785657
11
175.0510421
21
-35.3693154
0
LINE
8
0
10
159.8035863
20
-23.8795334
11
161.6128366
21
-36.7530183
0
LINE
8
0
10
173.6673392
20
-21.9311099
11
175.4765895
21
-34.8045948
0
ARC
8
0
10
160.2987203
20
-23.8099468
40
0.5
50
98
51
188
0
ARC
8
0
10
173.1722052
20
-22.0006965
40
0.5
50
8
51
98
0
ARC
8
0
10
162.1079706
20
-36.6834317
40
0.5
50
188
51
278
0
ARC
8
0
10
174.9814555
20
-34.8741814
40
0.5
50
278
51
8
0
LINE
8
0
10
197.9583471
20
-18.0123176
11
210.831832
21
-16.2030673
0
LINE
8
0
10
199.9067706
20
-31.8760705
11
212.7802555
21
-30.0668202
0
LINE
8
0
10
197.5327997
20
-18.5770382
11
199.34205
21
-31.4505231
0
LINE
8
0
10
211.3965526
20
-16.6286147
11
213.2058029
21
-29.5020996
0
ARC
8
0
10
198.0279337
20
-18.5074516
40
0.5
50
98
51
188
0
ARC
8
0
10
210.9014186
20
-16.6982013
40
0.5
50
8
51
98
0
ARC
8
0
10
199.837184
20
-31.3809365
40
0.5
50
188
51
278
0
ARC
8
0
10
212.7106689
20
-29.5716862
40
0.5
50
278
51
8
0
LINE
8
0
10
142.0273388
20
-30.682212
11
154.9008237
21
-28.8729617
0
LINE
8
0
10
143.9757623
20
-44.5459649
11
156.8492472
21
-42.7367146
0
LINE
8
0
10
141.6017914
20
-31.2469326
11
143.4110417
21
-44.1204175
0
LINE
8
0
10
155.4655443
20
-29.2985091
11
157.2747946
21
-42.171994
0
ARC
8
0
10
142.0969254
20
-31.177346
40
0.5
50
98
51
188
0
ARC
8
0
10
154.9704103
20
-29.3680957
40
0.5
50
8
51
98
0
ARC
8
0
10
143.9061757
20
-44.0508309
40
0.5
50
188
51
278
0
ARC
8
0
10
156.7796606
20
-42.2415806
40
0.5
50
278
51
8
0
LINE
8
0
10
217.4857657
20
-20.0772217
11
230.3592506
21
-18.2679714
0
LINE
8
0
10
219.4341892
20
-33.9409746
11
232.3076741
21
-32.1317243
0
LINE
8
0
10
217.0602183
20
-20.6419423
11
218.8694686
21
-33.5154272
0
LINE
8
0
10
230.9239712
20
-18.6935188
11
232.7332215
21
-31.5670037
0
ARC
8
0
10
217.5553523
20
-20.5723557
40
0.5
50
98
51
188
0
ARC
8
0
10
230.4288372
20
-18.7631054
40
0.5
50
8
51
98
0
ARC
8
0
10
219.3646026
20
-33.4458406
40
0.5
50
188
51
278
0
ARC
8
0
10
232.2380875
20
-31.6365903
40
0.5
50
278
51
8
0
LINE
8
0
10
181.082176
20
-34.8120202
11
193.9556609
21
-33.0027699
0
LINE
8
0
10
183.0305995
20
-48.6757731
11
195.9040844
21
-46.8665228
0
LINE
8
0
10
180.6566286
20
-35.3767408
11
182.4658789
21
-48.2502257
0
LINE
8
0
10
194.5203815
20
-33.4283173
11
196.3296318
21
-46.3018022
0
ARC
8
0
10
181.1517626
20
-35.3071542
40
0.5
50
98
51
188
0
ARC
8
0
10
194.0252475
20
-33.4979039
40
0.5
50
8
51
98
0
ARC
8
0
10
182.9610129
20
-48.1806391
40
0.5
50
188
51
278
0
ARC
8
0
10
195.8344978
20
-46.3713888
40
0.5
50
278
51
8
0
LINE
8
0
10
162.8803812
20
-42.1794195
11
175.7538661
21
-40.3701692
0
LINE
8
0
10
164.8288047
20
-56.0431724
11
177.7022896
21
-54.2339221
0
LINE
8
0
10
162.4548338
20
-42.7441401
11
164.2640841
21
-55.617625
0
LINE
8
0
10
176.3185867
20
-40.7957166
11
178.127837
21
-53.6692015
0
ARC
8
0
10
162.9499678
20
-42.6745535
40
0.5
50
98
51
188
0
ARC
8
0
10
175.8234527
20
-40.8653032
40
0.5
50
8
51
98
0
ARC
8
0
10
164.7592181
20
-55.5480384
40
0.5
50
188
51
278
0
ARC
8
0
10
177.632703
20
-53.7387881
40
0.5
50
278
51
8
0
LINE
8
0
10
200.6095946
20
-36.8769243
11
213.4830795
21
-35.067674
0
LINE
8
0
10
202.5580181
20
-50.7406772
11
215.431503
21
-48.9314269
0
LINE
8
0
10
200.1840472
20
-37.4416449
11
201.9932975
21
-50.3151298
0
LINE
8
0
10
214.0478001
20
-35.4932214
11
215.8570504
21
-48.3667063
0
ARC
8
0
10
200.6791812
20
-37.3720583
40
0.5
50
98
51
188
0
ARC
8
0
10
213.5526661
20
-35.562808
40
0.5
50
8
51
98
0
ARC
8
0
10
202.4884315
20
-50.2455432
40
0.5
50
188
51
278
0
ARC
8
0
10
215.3619164
20
-48.4362929
40
0.5
50
278
51
8
0
LINE
8
0
10
144.6785864
20
-49.5468187
11
157.5520713
21
-47.7375684
0
LINE
8
0
10
146.6270099
20
-63.4105716
11
159.5004948
21
-61.6013213
0
LINE
8
0
10
144.253039
20
-50.1115393
11
146.0622893
21
-62.9850242
0
LINE
8
0
10
158.1167919
20
-48.1631158
11
159.9260422
21
-61.0366007
0
ARC
8
0
10
144.748173
20
-50.0419527
40
0.5
50
98
51
188
0
ARC
8
0
10
157.6216579
20
-48.2327024
40
0.5
50
8
51
98
0
ARC
8
0
10
146.5574233
20
-62.9154376
40
0.5
50
188
51
278
0
ARC
8
0
10
159.4309082
20
-61.1061873
40
0.5
50
278
51
8
0
LINE
8
0
10
220.1370133
20
-38.9418284
11
233.0104982
21
-37.1325781
0
LINE
8
0
10
222.0854368
20
-52.8055813
11
234.9589217
21
-50.996331
0
LINE
8
0
10
219.7114659
20
-39.506549
11
221.5207162
21
-52.3800339
0
LINE
8
0
10
233.5752188
20
-37.5581255
11
235.3844691
21
-50.4316104
0
ARC
8
0
10
220.2065999
20
-39.4369624
40
0.5
50
98
51
188
0
ARC
8
0
10
233.0800848
20
-37.6277121
40
0.5
50
8
51
98
0
ARC
8
0
10
222.0158502
20
-52.3104473
40
0.5
50
188
51
278
0
ARC
8
0
10
234.8893351
20
-50.501197
40
0.5
50
278
51
8
0
LINE
8
0
10
183.7334236
20
-53.6766269
11
196.6069085
21
-51.8673766
0
LINE
8
0
10
185.6818471
20
-67.5403798
11
198.555332
21
-65.7311295
0
LINE
8
0
10
183.3078762
20
-54.2413475
11
185.1171265
21
-67.1148324
0
LINE
8
0
10
197.1716291
20
-52.292924
11
198.9808794
21
-65.1664089
0
ARC
8
0
10
183.8030102
20
-54.1717609
40
0.5
50
98
51
188
0
ARC
8
0
10
196.6764951
20
-52.3625106
40
0.5
50
8
51
98
0
ARC
8
0
10
185.6122605
20
-67.0452458
40
0.5
50
188
51
278
0
ARC
8
0
10
198.4857454
20
-65.2359955
40
0.5
50
278
51
8
0
LINE
8
0
10
141.5720268
20
-67.3208943
11
143.3812771
21
-80.1943792
0
LINE
8
0
10
127.7082739
20
-69.2693178
11
129.5175242
21
-82.1428027
0
LINE
8
0
10
141.0073062
20
-66.8953469
11
128.1338213
21
-68.7045972
0
LINE
8
0
10
142.9557297
20
-80.7590998
11
130.0822448
21
-82.5683501
0
ARC
8
0
10
141.0768928
20
-67.3904809
40
0.5
50
8
51
98
0
ARC
8
0
10
142.8861431
20
-80.2639658
40
0.5
50
278
51
8
0
ARC
8
0
10
128.2034079
20
-69.1997312
40
0.5
50
98
51
188
0
ARC
8
0
10
130.0126582
20
-82.0732161
40
0.5
50
188
51
278
0
LINE
8
0
10
165.5316288
20
-61.0440262
11
178.4051137
21
-59.2347759
0
LINE
8
0
10
167.4800523
20
-74.9077791
11
180.3535372
21
-73.0985288
0
LINE
8
0
10
165.1060814
20
-61.6087468
11
166.9153317
21
-74.4822317
0
LINE
8
0
10
178.9698343
20
-59.6603233
11
180.7790846
21
-72.5338082
0
ARC
8
0
10
165.6012154
20
-61.5391602
40
0.5
50
98
51
188
0
ARC
8
0
10
178.4747003
20
-59.7299099
40
0.5
50
8
51
98
0
ARC
8
0
10
167.4104657
20
-74.4126451
40
0.5
50
188
51
278
0
ARC
8
0
10
180.2839506
20
-72.6033948
40
0.5
50
278
51
8
0
LINE
8
0
10
203.2608422
20
-55.7415311
11
216.1343271
21
-53.9322808
0
LINE
8
0
10
205.2092657
20
-69.605284
11
218.0827506
21
-67.7960337
0
LINE
8
0
10
202.8352948
20
-56.3062517
11
204.6445451
21
-69.1797366
0
LINE
8
0
10
216.6990477
20
-54.3578282
11
218.508298
21
-67.2313131
0
ARC
8
0
10
203.3304288
20
-56.2366651
40
0.5
50
98
51
188
0
ARC
8
0
10
216.2039137
20
-54.4274148
40
0.5
50
8
51
98
0
ARC
8
0
10
205.1396791
20
-69.11015
40
0.5
50
188
51
278
0
ARC
8
0
10
218.013164
20
-67.3008997
40
0.5
50
278
51
8
0
LINE
8
0
10
147.329834
20
-68.4114254
11
160.2033189
21
-66.6021751
0
LINE
8
0
10
149.2782575
20
-82.2751783
11
162.1517424
21
-80.465928
0
LINE
8
0
10
146.9042866
20
-68.976146
11
148.7135369
21
-81.8496309
0
LINE
8
0
10
160.7680395
20
-67.0277225
11
162.5772898
21
-79.9012074
0
ARC
8
0
10
147.3994206
20
-68.9065594
40
0.5
50
98
51
188
0
ARC
8
0
10
160.2729055
20
-67.0973091
40
0.5
50
8
51
98
0
ARC
8
0
10
149.2086709
20
-81.7800443
40
0.5
50
188
51
278
0
ARC
8
0
10
162.0821558
20
-79.970794
40
0.5
50
278
51
8
0
LINE
8
0
10
222.7882608
20
-57.8064352
11
235.6617457
21
-55.9971849
0
LINE
8
0
10
224.7366843
20
-71.6701881
11
237.6101692
21
-69.8609378
0
LINE
8
0
10
222.3627134
20
-58.3711558
11
224.1719637
21
-71.2446407
0
LINE
8
0
10
236.2264663
20
-56.4227323
11
238.0357166
21
-69.2962172
0
ARC
8
0
10
222.8578474
20
-58.3015692
40
0.5
50
98
51
188
0
ARC
8
0
10
235.7313323
20
-56.4923189
40
0.5
50
8
51
98
0
ARC
8
0
10
224.6670977
20
-71.1750541
40
0.5
50
188
51
278
0
ARC
8
0
10
237.5405826
20
-69.3658038
40
0.5
50
278
51
8
0
LINE
8
0
10
0.7230521
20
-86.7656314
11
239.724215
21
-86.7656314
0
LINE
8
0
10
0.7230521
20
-12.4496648
11
239.724215
21
-12.4496648
0
LINE
8
0
10
0.7230521
20
-86.7656314
11
0.7230521
21
-12.4496648
0
LINE
8
0
10
239.724215
20
-86.7656314
11
239.724215
21
-12.4496648
0
ENDSEC
0
EOF